<svg id="production" xmlns="http://www.w3.org/2000/svg" width="300" height="200" viewBox="0 0 300 200">
  <defs>
    <style>
      .cls-1 {
        fill: #cacaca;
      }

      .cls-2 {
        fill: #e1e1e1;
      }
    </style>
  </defs>
  <title>S_IlluBarChart_300</title>
  <path class="cls-1" d="M280.5,160H19.5a1.50008,1.50008,0,0,1-1.5-1.5V37.5a1.5,1.5,0,0,1,3,0V157H280.5a1.5,1.5,0,0,1,0,3Z"/>
  <g>
    <path class="cls-1" d="M125.69092,52H31a1.50008,1.50008,0,0,1-1.5-1.5v-9A1.50008,1.50008,0,0,1,31,40h94.69092A2.81281,2.81281,0,0,1,128.5,42.80957v6.38086A2.81281,2.81281,0,0,1,125.69092,52ZM32.5,49h93V43h-93Z"/>
    <path class="cls-1" d="M138.55811,68H30.5A1.50008,1.50008,0,0,1,29,66.5v-9A1.50008,1.50008,0,0,1,30.5,56H138.55811A3.4458,3.4458,0,0,1,142,59.44238v5.11524A3.4458,3.4458,0,0,1,138.55811,68ZM32,65H138.55811A.44251.44251,0,0,0,139,64.55762V59.44238A.44251.44251,0,0,0,138.55811,59H32Z"/>
    <path class="cls-1" d="M94.91455,84H30.5A1.50008,1.50008,0,0,1,29,82.5v-9A1.50008,1.50008,0,0,1,30.5,72H94.91455A3.08956,3.08956,0,0,1,98,75.08594v5.82812A3.08956,3.08956,0,0,1,94.91455,84ZM32,81H94.91455A.08534.08534,0,0,0,95,80.91406V75.08594A.08534.08534,0,0,0,94.91455,75H32Z"/>
    <path class="cls-1" d="M171.40234,100H30.5A1.50008,1.50008,0,0,1,29,98.5v-9A1.50008,1.50008,0,0,1,30.5,88H171.40234A3.60188,3.60188,0,0,1,175,91.59766v4.80468A3.60188,3.60188,0,0,1,171.40234,100ZM32,97H171.40234A.5986.5986,0,0,0,172,96.40234V91.59766A.5986.5986,0,0,0,171.40234,91H32Z"/>
    <path class="cls-1" d="M129.52881,116H30.5a1.50008,1.50008,0,0,1-1.5-1.5v-9a1.50008,1.50008,0,0,1,1.5-1.5h99.02881A3.47549,3.47549,0,0,1,133,107.47168v5.05664A3.47549,3.47549,0,0,1,129.52881,116ZM32,113h97.52881A.47221.47221,0,0,0,130,112.52832v-5.05664A.47221.47221,0,0,0,129.52881,107H32Z"/>
    <path class="cls-1" d="M145.793,132H30.5a1.50008,1.50008,0,0,1-1.5-1.5v-9a1.50008,1.50008,0,0,1,1.5-1.5H145.793A3.21042,3.21042,0,0,1,149,123.207V128.793A3.21042,3.21042,0,0,1,145.793,132ZM32,129H145.793a.20713.20713,0,0,0,.207-.207V123.207a.20713.20713,0,0,0-.207-.207H32Z"/>
    <path class="cls-1" d="M218.21973,148H30.5a1.50008,1.50008,0,0,1-1.5-1.5v-9a1.50008,1.50008,0,0,1,1.5-1.5H218.21973A3.78484,3.78484,0,0,1,222,139.78027v4.43946A3.78484,3.78484,0,0,1,218.21973,148ZM32,145H218.21973A.78093.78093,0,0,0,219,144.21973v-4.43946A.78093.78093,0,0,0,218.21973,139H32Z"/>
  </g>
  <path class="cls-2" d="M295.0332,200h-6a1,1,0,0,1,0-2h6a2.9574,2.9574,0,0,0,.88379-.13379,1.0003,1.0003,0,0,1,.59473,1.91016A4.97158,4.97158,0,0,1,295.0332,200Zm-12,0h-6a1,1,0,0,1,0-2h6a1,1,0,0,1,0,2Zm-12,0h-6a1,1,0,0,1,0-2h6a1,1,0,0,1,0,2Zm-12,0h-6a1,1,0,1,1,0-2h6a1,1,0,0,1,0,2Zm-12,0h-6a1,1,0,1,1,0-2h6a1,1,0,0,1,0,2Zm-12,0h-6a1,1,0,1,1,0-2h6a1,1,0,0,1,0,2Zm-12,0h-6a1,1,0,1,1,0-2h6a1,1,0,0,1,0,2Zm-12,0h-6a1,1,0,1,1,0-2h6a1,1,0,0,1,0,2Zm-12,0h-6a1,1,0,1,1,0-2h6a1,1,0,0,1,0,2Zm-12,0h-6a1,1,0,1,1,0-2h6a1,1,0,0,1,0,2Zm-12,0h-6a1,1,0,1,1,0-2h6a1,1,0,0,1,0,2Zm-12,0h-6a1,1,0,1,1,0-2h6a1,1,0,0,1,0,2Zm-12,0h-6a1,1,0,1,1,0-2h6a1,1,0,0,1,0,2Zm-12,0h-6a1,1,0,1,1,0-2h6a1,1,0,0,1,0,2Zm-12,0h-6a1,1,0,1,1,0-2h6a1,1,0,0,1,0,2Zm-12,0h-6a1,1,0,1,1,0-2h6a1,1,0,0,1,0,2Zm-12,0h-6a1,1,0,1,1,0-2h6a1,1,0,0,1,0,2Zm-12,0h-6a1,1,0,1,1,0-2h6a1,1,0,0,1,0,2Zm-12,0h-6a1,1,0,1,1,0-2h6a1,1,0,0,1,0,2Zm-12,0h-6a1,1,0,0,1,0-2h6a1,1,0,0,1,0,2Zm-12,0h-6a1,1,0,1,1,0-2h6a1,1,0,0,1,0,2Zm-12,0h-6a1,1,0,1,1,0-2h6a1,1,0,0,1,0,2Zm-12,0h-6a1,1,0,1,1,0-2h6a1,1,0,0,1,0,2Zm-12,0h-6a1,1,0,1,1,0-2h6a1,1,0,0,1,0,2Zm-12,0H4.9668a4.95452,4.95452,0,0,1-4.15528-2.24609.99988.99988,0,0,1,1.67286-1.09571A2.961,2.961,0,0,0,4.9668,198H7.0332a1,1,0,1,1,0,2ZM299,195.06738a.99973.99973,0,0,1-1-1v-6a1,1,0,0,1,2,0v6A.99973.99973,0,0,1,299,195.06738ZM1,192.333a.99974.99974,0,0,1-1-1v-6a1,1,0,0,1,2,0v6A.99974.99974,0,0,1,1,192.333Zm298-9.26563a.99973.99973,0,0,1-1-1v-6a1,1,0,0,1,2,0v6A.99973.99973,0,0,1,299,183.06738ZM1,180.333a.99974.99974,0,0,1-1-1v-6a1,1,0,0,1,2,0v6A.99974.99974,0,0,1,1,180.333Zm298-9.26563a.99973.99973,0,0,1-1-1v-6a1,1,0,0,1,2,0v6A.99973.99973,0,0,1,299,171.06738ZM1,168.333a.99974.99974,0,0,1-1-1v-6a1,1,0,0,1,2,0v6A.99974.99974,0,0,1,1,168.333Zm298-9.26563a.99973.99973,0,0,1-1-1v-6a1,1,0,0,1,2,0v6A.99973.99973,0,0,1,299,159.06738ZM1,156.333a.99974.99974,0,0,1-1-1v-6a1,1,0,0,1,2,0v6A.99974.99974,0,0,1,1,156.333Zm298-9.26563a.99973.99973,0,0,1-1-1v-6a1,1,0,0,1,2,0v6A.99973.99973,0,0,1,299,147.06738ZM1,144.333a.99974.99974,0,0,1-1-1v-6a1,1,0,0,1,2,0v6A.99974.99974,0,0,1,1,144.333Zm298-9.26563a.99973.99973,0,0,1-1-1v-6a1,1,0,0,1,2,0v6A.99973.99973,0,0,1,299,135.06738ZM1,132.333a.99974.99974,0,0,1-1-1v-6a1,1,0,0,1,2,0v6A.99974.99974,0,0,1,1,132.333Zm298-9.26563a.99973.99973,0,0,1-1-1v-6a1,1,0,0,1,2,0v6A.99973.99973,0,0,1,299,123.06738ZM1,120.333a.99974.99974,0,0,1-1-1v-6a1,1,0,0,1,2,0v6A.99974.99974,0,0,1,1,120.333Zm298-9.26563a.99973.99973,0,0,1-1-1v-6a1,1,0,0,1,2,0v6A.99973.99973,0,0,1,299,111.06738ZM1,108.333a.99974.99974,0,0,1-1-1v-6a1,1,0,0,1,2,0v6A.99974.99974,0,0,1,1,108.333Zm298-9.26563a.99973.99973,0,0,1-1-1v-6a1,1,0,0,1,2,0v6A.99973.99973,0,0,1,299,99.06738ZM1,96.333a.99974.99974,0,0,1-1-1v-6a1,1,0,0,1,2,0v6A.99974.99974,0,0,1,1,96.333Zm298-9.26563a.99973.99973,0,0,1-1-1v-6a1,1,0,0,1,2,0v6A.99973.99973,0,0,1,299,87.06738ZM1,84.333a.99974.99974,0,0,1-1-1v-6a1,1,0,0,1,2,0v6A.99974.99974,0,0,1,1,84.333Zm298-9.26563a.99973.99973,0,0,1-1-1v-6a1,1,0,0,1,2,0v6A.99973.99973,0,0,1,299,75.06738ZM1,72.333a.99974.99974,0,0,1-1-1v-6a1,1,0,0,1,2,0v6A.99974.99974,0,0,1,1,72.333Zm298-9.26563a.99973.99973,0,0,1-1-1v-6a1,1,0,0,1,2,0v6A.99973.99973,0,0,1,299,63.06738ZM1,60.333a.99974.99974,0,0,1-1-1v-6a1,1,0,0,1,2,0v6A.99974.99974,0,0,1,1,60.333Zm298-9.26563a.99973.99973,0,0,1-1-1v-6a1,1,0,0,1,2,0v6A.99973.99973,0,0,1,299,51.06738ZM1,48.333a.99974.99974,0,0,1-1-1v-6a1,1,0,0,1,2,0v6A.99974.99974,0,0,1,1,48.333Zm298-9.26563a.99973.99973,0,0,1-1-1v-6a1,1,0,0,1,2,0v6A.99973.99973,0,0,1,299,39.06738ZM1,36.333a.99974.99974,0,0,1-1-1v-6a1,1,0,0,1,2,0v6A.99974.99974,0,0,1,1,36.333Zm298-9.26563a.99973.99973,0,0,1-1-1v-6a1,1,0,0,1,2,0v6A.99973.99973,0,0,1,299,27.06738ZM1,24.333a.99974.99974,0,0,1-1-1v-6a1,1,0,0,1,2,0v6A.99974.99974,0,0,1,1,24.333Zm298-9.26563a.99973.99973,0,0,1-1-1v-6a1,1,0,0,1,2,0v6A.99973.99973,0,0,1,299,15.06738ZM1,12.333a.99974.99974,0,0,1-1-1v-6a1,1,0,0,1,2,0v6A.99974.99974,0,0,1,1,12.333ZM297.98779,3.31934a.99791.99791,0,0,1-.74463-.332A2.97209,2.97209,0,0,0,295.0332,2h-2.6665a1,1,0,0,1,0-2h2.6665a4.97474,4.97474,0,0,1,3.69825,1.65137,1,1,0,0,1-.74366,1.668ZM4.36768,2.04492A1.00023,1.00023,0,0,1,4.22021.05566,5.08465,5.08465,0,0,1,4.9668,0h5.40039a1,1,0,0,1,0,2H4.9668a2.95009,2.95009,0,0,0-.44873.03418A1.12333,1.12333,0,0,1,4.36768,2.04492ZM286.3667,2h-6a1,1,0,0,1,0-2h6a1,1,0,0,1,0,2Zm-12,0h-6a1,1,0,0,1,0-2h6a1,1,0,0,1,0,2Zm-12,0h-6a1,1,0,0,1,0-2h6a1,1,0,0,1,0,2Zm-12,0h-6a1,1,0,0,1,0-2h6a1,1,0,0,1,0,2Zm-12,0h-6a1,1,0,0,1,0-2h6a1,1,0,0,1,0,2Zm-12,0h-6a1,1,0,0,1,0-2h6a1,1,0,0,1,0,2Zm-12,0h-6a1,1,0,0,1,0-2h6a1,1,0,0,1,0,2ZM202.36719,2h-6a1,1,0,0,1,0-2h6a1,1,0,0,1,0,2Zm-12,0h-6a1,1,0,0,1,0-2h6a1,1,0,0,1,0,2Zm-12,0h-6a1,1,0,0,1,0-2h6a1,1,0,0,1,0,2Zm-12,0h-6a1,1,0,0,1,0-2h6a1,1,0,0,1,0,2Zm-12,0h-6a1,1,0,0,1,0-2h6a1,1,0,0,1,0,2Zm-12,0h-6a1,1,0,0,1,0-2h6a1,1,0,0,1,0,2Zm-12,0h-6a1,1,0,0,1,0-2h6a1,1,0,0,1,0,2Zm-12,0h-6a1,1,0,0,1,0-2h6a1,1,0,0,1,0,2Zm-12,0h-6a1,1,0,0,1,0-2h6a1,1,0,0,1,0,2Zm-12,0h-6a1,1,0,0,1,0-2h6a1,1,0,0,1,0,2Zm-12,0h-6a1,1,0,0,1,0-2h6a1,1,0,0,1,0,2Zm-12,0h-6a1,1,0,1,1,0-2h6a1,1,0,0,1,0,2Zm-12,0h-6a1,1,0,0,1,0-2h6a1,1,0,0,1,0,2Zm-12,0h-6a1,1,0,0,1,0-2h6a1,1,0,0,1,0,2Zm-12,0h-6a1,1,0,0,1,0-2h6a1,1,0,0,1,0,2Zm-12,0h-6a1,1,0,0,1,0-2h6a1,1,0,0,1,0,2Z"/>
  <circle class="cls-1" cx="150" cy="49" r="1"/>
  <circle class="cls-1" cx="172" cy="49" r="1"/>
  <circle class="cls-1" cx="194" cy="49" r="1"/>
  <circle class="cls-1" cx="216" cy="49" r="1"/>
  <circle class="cls-1" cx="238" cy="49" r="1"/>
  <circle class="cls-1" cx="260" cy="49" r="1"/>
  <circle class="cls-1" cx="150" cy="71" r="1"/>
  <circle class="cls-1" cx="172" cy="71" r="1"/>
  <circle class="cls-1" cx="194" cy="71" r="1"/>
  <circle class="cls-1" cx="216" cy="71" r="1"/>
  <circle class="cls-1" cx="238" cy="71" r="1"/>
  <circle class="cls-1" cx="260" cy="71" r="1"/>
  <circle class="cls-1" cx="194" cy="93" r="1"/>
  <circle class="cls-1" cx="216" cy="93" r="1"/>
  <circle class="cls-1" cx="238" cy="93" r="1"/>
  <circle class="cls-1" cx="260" cy="93" r="1"/>
  <circle class="cls-1" cx="150" cy="115" r="1"/>
  <circle class="cls-1" cx="172" cy="115" r="1"/>
  <circle class="cls-1" cx="194" cy="115" r="1"/>
  <circle class="cls-1" cx="216" cy="115" r="1"/>
  <circle class="cls-1" cx="238" cy="115" r="1"/>
  <circle class="cls-1" cx="260" cy="115" r="1"/>
  <circle class="cls-1" cx="238" cy="137" r="1"/>
  <circle class="cls-1" cx="260" cy="137" r="1"/>
</svg>
