<svg id="production" xmlns="http://www.w3.org/2000/svg" width="300" height="200" viewBox="0 0 300 200">
  <defs>
    <style>
      .cls-1 {
        fill: #cacaca;
      }

      .cls-2 {
        fill: #e1e1e1;
      }
    </style>
  </defs>
  <title>S_IlluColumnChart_300</title>
  <path class="cls-1" d="M280.5,160H19.5a1.50008,1.50008,0,0,1-1.5-1.5V37.5a1.5,1.5,0,0,1,3,0V157H280.5a1.5,1.5,0,0,1,0,3Z"/>
  <circle class="cls-1" cx="40" cy="49" r="1"/>
  <circle class="cls-1" cx="62" cy="49" r="1"/>
  <circle class="cls-1" cx="84" cy="49" r="1"/>
  <circle class="cls-1" cx="106" cy="49" r="1"/>
  <circle class="cls-1" cx="128" cy="49" r="1"/>
  <circle class="cls-1" cx="150" cy="49" r="1"/>
  <circle class="cls-1" cx="172" cy="49" r="1"/>
  <circle class="cls-1" cx="194" cy="49" r="1"/>
  <circle class="cls-1" cx="216" cy="49" r="1"/>
  <circle class="cls-1" cx="238" cy="49" r="1"/>
  <circle class="cls-1" cx="260" cy="49" r="1"/>
  <circle class="cls-1" cx="40" cy="71" r="1"/>
  <circle class="cls-1" cx="62" cy="71" r="1"/>
  <circle class="cls-1" cx="84" cy="71" r="1"/>
  <circle class="cls-1" cx="106" cy="71" r="1"/>
  <circle class="cls-1" cx="128" cy="71" r="1"/>
  <circle class="cls-1" cx="150" cy="71" r="1"/>
  <circle class="cls-1" cx="172" cy="71" r="1"/>
  <circle class="cls-1" cx="194" cy="71" r="1"/>
  <circle class="cls-1" cx="216" cy="71" r="1"/>
  <circle class="cls-1" cx="260" cy="71" r="1"/>
  <circle class="cls-1" cx="40" cy="93" r="1"/>
  <circle class="cls-1" cx="62" cy="93" r="1"/>
  <circle class="cls-1" cx="106" cy="93" r="1"/>
  <circle class="cls-1" cx="128" cy="93" r="1"/>
  <circle class="cls-1" cx="194" cy="93" r="1"/>
  <circle class="cls-1" cx="216" cy="93" r="1"/>
  <circle class="cls-1" cx="260" cy="93" r="1"/>
  <circle class="cls-1" cx="40" cy="115" r="1"/>
  <circle class="cls-1" cx="62" cy="115" r="1"/>
  <circle class="cls-1" cx="128" cy="115" r="1"/>
  <circle class="cls-1" cx="260" cy="115" r="1"/>
  <circle class="cls-1" cx="40" cy="137" r="1"/>
  <circle class="cls-1" cx="128" cy="137" r="1"/>
  <circle class="cls-1" cx="260" cy="137" r="1"/>
  <path class="cls-1" d="M64.5,154h-21a1.50008,1.50008,0,0,1-1.5-1.5v-28a3.50424,3.50424,0,0,1,3.5-3.5h17a3.50424,3.50424,0,0,1,3.5,3.5v28A1.50008,1.50008,0,0,1,64.5,154ZM45,151H63V124.5a.50065.50065,0,0,0-.5-.5h-17a.50065.50065,0,0,0-.5.5Z"/>
  <path class="cls-1" d="M94.6665,154h-21a1.50008,1.50008,0,0,1-1.5-1.5V89.4668A4.472,4.472,0,0,1,76.6333,85H91.7002a4.47158,4.47158,0,0,1,4.4663,4.4668V152.5A1.50007,1.50007,0,0,1,94.6665,154Zm-19.5-3h18V89.4668A1.46829,1.46829,0,0,0,91.7002,88H76.6333a1.46872,1.46872,0,0,0-1.4668,1.4668Z"/>
  <path class="cls-1" d="M124.8335,154h-21a1.50007,1.50007,0,0,1-1.5-1.5V110.92188A3.92654,3.92654,0,0,1,106.25537,107h16.15576a3.927,3.927,0,0,1,3.92237,3.92188V152.5A1.50008,1.50008,0,0,1,124.8335,154Zm-19.5-3h18V110.92188A.92275.92275,0,0,0,122.41113,110H106.25537a.92263.92263,0,0,0-.92187.92188Z"/>
  <path class="cls-1" d="M155,154H134a1.50008,1.50008,0,0,1-1.5-1.5V78.7041A4.70956,4.70956,0,0,1,137.2041,74h14.5918A4.70956,4.70956,0,0,1,156.5,78.7041V152.5A1.50008,1.50008,0,0,1,155,154Zm-19.5-3h18V78.7041A1.70628,1.70628,0,0,0,151.7959,77H137.2041A1.70628,1.70628,0,0,0,135.5,78.7041Z"/>
  <path class="cls-1" d="M185.1665,154h-21a1.50008,1.50008,0,0,1-1.5-1.5V87.51074A4.51618,4.51618,0,0,1,167.17773,83h14.978a4.51575,4.51575,0,0,1,4.51074,4.51074V152.5A1.50007,1.50007,0,0,1,185.1665,154Zm-19.5-3h18V87.51074A1.51247,1.51247,0,0,0,182.15576,86h-14.978a1.51258,1.51258,0,0,0-1.51123,1.51074Z"/>
  <path class="cls-1" d="M215.3335,154h-21a1.50007,1.50007,0,0,1-1.5-1.5V104.10742A4.11231,4.11231,0,0,1,196.94092,100h15.78467a4.11243,4.11243,0,0,1,4.10791,4.10742V152.5A1.50008,1.50008,0,0,1,215.3335,154Zm-19.5-3h18V104.10742A1.10914,1.10914,0,0,0,212.72559,103H196.94092a1.10872,1.10872,0,0,0-1.10742,1.10742Z"/>
  <path class="cls-1" d="M245.5,154h-21a1.50008,1.50008,0,0,1-1.5-1.5V64.9834A4.98879,4.98879,0,0,1,227.9834,60h14.0332A4.98879,4.98879,0,0,1,247,64.9834V152.5A1.50008,1.50008,0,0,1,245.5,154ZM226,151h18V64.9834A1.98552,1.98552,0,0,0,242.0166,63H227.9834A1.98552,1.98552,0,0,0,226,64.9834Z"/>
  <path class="cls-2" d="M295.0332,200h-6a1,1,0,0,1,0-2h6a2.9574,2.9574,0,0,0,.88379-.13379,1.0003,1.0003,0,0,1,.59473,1.91016A4.97158,4.97158,0,0,1,295.0332,200Zm-12,0h-6a1,1,0,0,1,0-2h6a1,1,0,0,1,0,2Zm-12,0h-6a1,1,0,0,1,0-2h6a1,1,0,0,1,0,2Zm-12,0h-6a1,1,0,1,1,0-2h6a1,1,0,0,1,0,2Zm-12,0h-6a1,1,0,1,1,0-2h6a1,1,0,0,1,0,2Zm-12,0h-6a1,1,0,1,1,0-2h6a1,1,0,0,1,0,2Zm-12,0h-6a1,1,0,1,1,0-2h6a1,1,0,0,1,0,2Zm-12,0h-6a1,1,0,1,1,0-2h6a1,1,0,0,1,0,2Zm-12,0h-6a1,1,0,1,1,0-2h6a1,1,0,0,1,0,2Zm-12,0h-6a1,1,0,1,1,0-2h6a1,1,0,0,1,0,2Zm-12,0h-6a1,1,0,1,1,0-2h6a1,1,0,0,1,0,2Zm-12,0h-6a1,1,0,1,1,0-2h6a1,1,0,0,1,0,2Zm-12,0h-6a1,1,0,1,1,0-2h6a1,1,0,0,1,0,2Zm-12,0h-6a1,1,0,1,1,0-2h6a1,1,0,0,1,0,2Zm-12,0h-6a1,1,0,1,1,0-2h6a1,1,0,0,1,0,2Zm-12,0h-6a1,1,0,1,1,0-2h6a1,1,0,0,1,0,2Zm-12,0h-6a1,1,0,1,1,0-2h6a1,1,0,0,1,0,2Zm-12,0h-6a1,1,0,1,1,0-2h6a1,1,0,0,1,0,2Zm-12,0h-6a1,1,0,1,1,0-2h6a1,1,0,0,1,0,2Zm-12,0h-6a1,1,0,0,1,0-2h6a1,1,0,0,1,0,2Zm-12,0h-6a1,1,0,1,1,0-2h6a1,1,0,0,1,0,2Zm-12,0h-6a1,1,0,1,1,0-2h6a1,1,0,0,1,0,2Zm-12,0h-6a1,1,0,1,1,0-2h6a1,1,0,0,1,0,2Zm-12,0h-6a1,1,0,1,1,0-2h6a1,1,0,0,1,0,2Zm-12,0H4.9668a4.95452,4.95452,0,0,1-4.15528-2.24609.99988.99988,0,0,1,1.67286-1.09571A2.961,2.961,0,0,0,4.9668,198H7.0332a1,1,0,1,1,0,2ZM299,195.06738a.99973.99973,0,0,1-1-1v-6a1,1,0,0,1,2,0v6A.99973.99973,0,0,1,299,195.06738ZM1,192.333a.99974.99974,0,0,1-1-1v-6a1,1,0,0,1,2,0v6A.99974.99974,0,0,1,1,192.333Zm298-9.26563a.99973.99973,0,0,1-1-1v-6a1,1,0,0,1,2,0v6A.99973.99973,0,0,1,299,183.06738ZM1,180.333a.99974.99974,0,0,1-1-1v-6a1,1,0,0,1,2,0v6A.99974.99974,0,0,1,1,180.333Zm298-9.26563a.99973.99973,0,0,1-1-1v-6a1,1,0,0,1,2,0v6A.99973.99973,0,0,1,299,171.06738ZM1,168.333a.99974.99974,0,0,1-1-1v-6a1,1,0,0,1,2,0v6A.99974.99974,0,0,1,1,168.333Zm298-9.26563a.99973.99973,0,0,1-1-1v-6a1,1,0,0,1,2,0v6A.99973.99973,0,0,1,299,159.06738ZM1,156.333a.99974.99974,0,0,1-1-1v-6a1,1,0,0,1,2,0v6A.99974.99974,0,0,1,1,156.333Zm298-9.26563a.99973.99973,0,0,1-1-1v-6a1,1,0,0,1,2,0v6A.99973.99973,0,0,1,299,147.06738ZM1,144.333a.99974.99974,0,0,1-1-1v-6a1,1,0,0,1,2,0v6A.99974.99974,0,0,1,1,144.333Zm298-9.26563a.99973.99973,0,0,1-1-1v-6a1,1,0,0,1,2,0v6A.99973.99973,0,0,1,299,135.06738ZM1,132.333a.99974.99974,0,0,1-1-1v-6a1,1,0,0,1,2,0v6A.99974.99974,0,0,1,1,132.333Zm298-9.26563a.99973.99973,0,0,1-1-1v-6a1,1,0,0,1,2,0v6A.99973.99973,0,0,1,299,123.06738ZM1,120.333a.99974.99974,0,0,1-1-1v-6a1,1,0,0,1,2,0v6A.99974.99974,0,0,1,1,120.333Zm298-9.26563a.99973.99973,0,0,1-1-1v-6a1,1,0,0,1,2,0v6A.99973.99973,0,0,1,299,111.06738ZM1,108.333a.99974.99974,0,0,1-1-1v-6a1,1,0,0,1,2,0v6A.99974.99974,0,0,1,1,108.333Zm298-9.26563a.99973.99973,0,0,1-1-1v-6a1,1,0,0,1,2,0v6A.99973.99973,0,0,1,299,99.06738ZM1,96.333a.99974.99974,0,0,1-1-1v-6a1,1,0,0,1,2,0v6A.99974.99974,0,0,1,1,96.333Zm298-9.26563a.99973.99973,0,0,1-1-1v-6a1,1,0,0,1,2,0v6A.99973.99973,0,0,1,299,87.06738ZM1,84.333a.99974.99974,0,0,1-1-1v-6a1,1,0,0,1,2,0v6A.99974.99974,0,0,1,1,84.333Zm298-9.26563a.99973.99973,0,0,1-1-1v-6a1,1,0,0,1,2,0v6A.99973.99973,0,0,1,299,75.06738ZM1,72.333a.99974.99974,0,0,1-1-1v-6a1,1,0,0,1,2,0v6A.99974.99974,0,0,1,1,72.333Zm298-9.26563a.99973.99973,0,0,1-1-1v-6a1,1,0,0,1,2,0v6A.99973.99973,0,0,1,299,63.06738ZM1,60.333a.99974.99974,0,0,1-1-1v-6a1,1,0,0,1,2,0v6A.99974.99974,0,0,1,1,60.333Zm298-9.26563a.99973.99973,0,0,1-1-1v-6a1,1,0,0,1,2,0v6A.99973.99973,0,0,1,299,51.06738ZM1,48.333a.99974.99974,0,0,1-1-1v-6a1,1,0,0,1,2,0v6A.99974.99974,0,0,1,1,48.333Zm298-9.26563a.99973.99973,0,0,1-1-1v-6a1,1,0,0,1,2,0v6A.99973.99973,0,0,1,299,39.06738ZM1,36.333a.99974.99974,0,0,1-1-1v-6a1,1,0,0,1,2,0v6A.99974.99974,0,0,1,1,36.333Zm298-9.26563a.99973.99973,0,0,1-1-1v-6a1,1,0,0,1,2,0v6A.99973.99973,0,0,1,299,27.06738ZM1,24.333a.99974.99974,0,0,1-1-1v-6a1,1,0,0,1,2,0v6A.99974.99974,0,0,1,1,24.333Zm298-9.26563a.99973.99973,0,0,1-1-1v-6a1,1,0,0,1,2,0v6A.99973.99973,0,0,1,299,15.06738ZM1,12.333a.99974.99974,0,0,1-1-1v-6a1,1,0,0,1,2,0v6A.99974.99974,0,0,1,1,12.333ZM297.98779,3.31934a.99791.99791,0,0,1-.74463-.332A2.97209,2.97209,0,0,0,295.0332,2h-2.6665a1,1,0,0,1,0-2h2.6665a4.97474,4.97474,0,0,1,3.69825,1.65137,1,1,0,0,1-.74366,1.668ZM4.36768,2.04492A1.00023,1.00023,0,0,1,4.22021.05566,5.08465,5.08465,0,0,1,4.9668,0h5.40039a1,1,0,0,1,0,2H4.9668a2.95009,2.95009,0,0,0-.44873.03418A1.12333,1.12333,0,0,1,4.36768,2.04492ZM286.3667,2h-6a1,1,0,0,1,0-2h6a1,1,0,0,1,0,2Zm-12,0h-6a1,1,0,0,1,0-2h6a1,1,0,0,1,0,2Zm-12,0h-6a1,1,0,0,1,0-2h6a1,1,0,0,1,0,2Zm-12,0h-6a1,1,0,0,1,0-2h6a1,1,0,0,1,0,2Zm-12,0h-6a1,1,0,0,1,0-2h6a1,1,0,0,1,0,2Zm-12,0h-6a1,1,0,0,1,0-2h6a1,1,0,0,1,0,2Zm-12,0h-6a1,1,0,0,1,0-2h6a1,1,0,0,1,0,2ZM202.36719,2h-6a1,1,0,0,1,0-2h6a1,1,0,0,1,0,2Zm-12,0h-6a1,1,0,0,1,0-2h6a1,1,0,0,1,0,2Zm-12,0h-6a1,1,0,0,1,0-2h6a1,1,0,0,1,0,2Zm-12,0h-6a1,1,0,0,1,0-2h6a1,1,0,0,1,0,2Zm-12,0h-6a1,1,0,0,1,0-2h6a1,1,0,0,1,0,2Zm-12,0h-6a1,1,0,0,1,0-2h6a1,1,0,0,1,0,2Zm-12,0h-6a1,1,0,0,1,0-2h6a1,1,0,0,1,0,2Zm-12,0h-6a1,1,0,0,1,0-2h6a1,1,0,0,1,0,2Zm-12,0h-6a1,1,0,0,1,0-2h6a1,1,0,0,1,0,2Zm-12,0h-6a1,1,0,0,1,0-2h6a1,1,0,0,1,0,2Zm-12,0h-6a1,1,0,0,1,0-2h6a1,1,0,0,1,0,2Zm-12,0h-6a1,1,0,1,1,0-2h6a1,1,0,0,1,0,2Zm-12,0h-6a1,1,0,0,1,0-2h6a1,1,0,0,1,0,2Zm-12,0h-6a1,1,0,0,1,0-2h6a1,1,0,0,1,0,2Zm-12,0h-6a1,1,0,0,1,0-2h6a1,1,0,0,1,0,2Zm-12,0h-6a1,1,0,0,1,0-2h6a1,1,0,0,1,0,2Z"/>
</svg>
