<svg id="production" xmlns="http://www.w3.org/2000/svg" width="300" height="200" viewBox="0 0 300 200">
  <defs>
    <style>
      .cls-1 {
        fill: #e1e1e1;
      }

      .cls-2 {
        fill: #cacaca;
      }
    </style>
  </defs>
  <title>S_IlluDonutChart_300</title>
  <path class="cls-1" d="M295.0332,200h-6a1,1,0,0,1,0-2h6a2.95345,2.95345,0,0,0,.88282-.13379,1.00045,1.00045,0,1,1,.5957,1.91016A4.974,4.974,0,0,1,295.0332,200Zm-12,0h-6a1,1,0,0,1,0-2h6a1,1,0,0,1,0,2Zm-12,0h-6a1,1,0,0,1,0-2h6a1,1,0,0,1,0,2Zm-12,0h-6a1,1,0,1,1,0-2h6a1,1,0,0,1,0,2Zm-12,0h-6a1,1,0,1,1,0-2h6a1,1,0,0,1,0,2Zm-12,0h-6a1,1,0,1,1,0-2h6a1,1,0,0,1,0,2Zm-12,0h-6a1,1,0,1,1,0-2h6a1,1,0,0,1,0,2Zm-12,0h-6a1,1,0,1,1,0-2h6a1,1,0,0,1,0,2Zm-12,0h-6a1,1,0,1,1,0-2h6a1,1,0,0,1,0,2Zm-12,0h-6a1,1,0,1,1,0-2h6a1,1,0,0,1,0,2Zm-12,0h-6a1,1,0,1,1,0-2h6a1,1,0,0,1,0,2Zm-12,0h-6a1,1,0,1,1,0-2h6a1,1,0,0,1,0,2Zm-12,0h-6a1,1,0,1,1,0-2h6a1,1,0,0,1,0,2Zm-12,0h-6a1,1,0,1,1,0-2h6a1,1,0,0,1,0,2Zm-12,0h-6a1,1,0,1,1,0-2h6a1,1,0,0,1,0,2Zm-12,0h-6a1,1,0,1,1,0-2h6a1,1,0,0,1,0,2Zm-12,0h-6a1,1,0,1,1,0-2h6a1,1,0,0,1,0,2Zm-12,0h-6a1,1,0,1,1,0-2h6a1,1,0,0,1,0,2Zm-12,0h-6a1,1,0,1,1,0-2h6a1,1,0,0,1,0,2Zm-12,0h-6a1,1,0,0,1,0-2h6a1,1,0,0,1,0,2Zm-12,0h-6a1,1,0,1,1,0-2h6a1,1,0,0,1,0,2Zm-12,0h-6a1,1,0,1,1,0-2h6a1,1,0,0,1,0,2Zm-12,0h-6a1,1,0,1,1,0-2h6a1,1,0,0,1,0,2Zm-12,0h-6a1,1,0,1,1,0-2h6a1,1,0,0,1,0,2Zm-12,0H4.9668a4.95515,4.95515,0,0,1-4.15528-2.24609,1,1,0,1,1,1.67188-1.09766A2.96173,2.96173,0,0,0,4.9668,198H7.0332a1,1,0,1,1,0,2ZM299,195.06738a.99942.99942,0,0,1-1-1v-6a1,1,0,0,1,2,0v6A.99942.99942,0,0,1,299,195.06738ZM1,192.333a.99943.99943,0,0,1-1-1v-6a1,1,0,0,1,2,0v6A.99943.99943,0,0,1,1,192.333Zm298-9.26563a.99942.99942,0,0,1-1-1v-6a1,1,0,0,1,2,0v6A.99942.99942,0,0,1,299,183.06738ZM1,180.333a.99943.99943,0,0,1-1-1v-6a1,1,0,0,1,2,0v6A.99943.99943,0,0,1,1,180.333Zm298-9.26563a.99942.99942,0,0,1-1-1v-6a1,1,0,0,1,2,0v6A.99942.99942,0,0,1,299,171.06738ZM1,168.333a.99943.99943,0,0,1-1-1v-6a1,1,0,0,1,2,0v6A.99943.99943,0,0,1,1,168.333Zm298-9.26563a.99942.99942,0,0,1-1-1v-6a1,1,0,0,1,2,0v6A.99942.99942,0,0,1,299,159.06738ZM1,156.333a.99943.99943,0,0,1-1-1v-6a1,1,0,0,1,2,0v6A.99943.99943,0,0,1,1,156.333Zm298-9.26563a.99942.99942,0,0,1-1-1v-6a1,1,0,0,1,2,0v6A.99942.99942,0,0,1,299,147.06738ZM1,144.333a.99943.99943,0,0,1-1-1v-6a1,1,0,0,1,2,0v6A.99943.99943,0,0,1,1,144.333Zm298-9.26563a.99942.99942,0,0,1-1-1v-6a1,1,0,0,1,2,0v6A.99942.99942,0,0,1,299,135.06738ZM1,132.333a.99943.99943,0,0,1-1-1v-6a1,1,0,0,1,2,0v6A.99943.99943,0,0,1,1,132.333Zm298-9.26563a.99942.99942,0,0,1-1-1v-6a1,1,0,0,1,2,0v6A.99942.99942,0,0,1,299,123.06738ZM1,120.333a.99943.99943,0,0,1-1-1v-6a1,1,0,0,1,2,0v6A.99943.99943,0,0,1,1,120.333Zm298-9.26563a.99942.99942,0,0,1-1-1v-6a1,1,0,0,1,2,0v6A.99942.99942,0,0,1,299,111.06738ZM1,108.333a.99943.99943,0,0,1-1-1v-6a1,1,0,0,1,2,0v6A.99943.99943,0,0,1,1,108.333Zm298-9.26563a.99942.99942,0,0,1-1-1v-6a1,1,0,0,1,2,0v6A.99942.99942,0,0,1,299,99.06738ZM1,96.333a.99943.99943,0,0,1-1-1v-6a1,1,0,0,1,2,0v6A.99943.99943,0,0,1,1,96.333Zm298-9.26563a.99942.99942,0,0,1-1-1v-6a1,1,0,0,1,2,0v6A.99942.99942,0,0,1,299,87.06738ZM1,84.333a.99943.99943,0,0,1-1-1v-6a1,1,0,0,1,2,0v6A.99943.99943,0,0,1,1,84.333Zm298-9.26563a.99942.99942,0,0,1-1-1v-6a1,1,0,0,1,2,0v6A.99942.99942,0,0,1,299,75.06738ZM1,72.333a.99943.99943,0,0,1-1-1v-6a1,1,0,0,1,2,0v6A.99943.99943,0,0,1,1,72.333Zm298-9.26563a.99942.99942,0,0,1-1-1v-6a1,1,0,0,1,2,0v6A.99942.99942,0,0,1,299,63.06738ZM1,60.333a.99943.99943,0,0,1-1-1v-6a1,1,0,0,1,2,0v6A.99943.99943,0,0,1,1,60.333Zm298-9.26563a.99942.99942,0,0,1-1-1v-6a1,1,0,0,1,2,0v6A.99942.99942,0,0,1,299,51.06738ZM1,48.333a.99943.99943,0,0,1-1-1v-6a1,1,0,0,1,2,0v6A.99943.99943,0,0,1,1,48.333Zm298-9.26563a.99942.99942,0,0,1-1-1v-6a1,1,0,0,1,2,0v6A.99942.99942,0,0,1,299,39.06738ZM1,36.333a.99943.99943,0,0,1-1-1v-6a1,1,0,0,1,2,0v6A.99943.99943,0,0,1,1,36.333Zm298-9.26563a.99942.99942,0,0,1-1-1v-6a1,1,0,0,1,2,0v6A.99942.99942,0,0,1,299,27.06738ZM1,24.333a.99943.99943,0,0,1-1-1v-6a1,1,0,0,1,2,0v6A.99943.99943,0,0,1,1,24.333Zm298-9.26563a.99942.99942,0,0,1-1-1v-6a1,1,0,0,1,2,0v6A.99942.99942,0,0,1,299,15.06738ZM1,12.333a.99943.99943,0,0,1-1-1v-6a1,1,0,0,1,2,0v6A.99943.99943,0,0,1,1,12.333Zm296.9873-9.0127a.99687.99687,0,0,1-.74414-.332A2.973,2.973,0,0,0,295.0332,2h-2.666a1,1,0,0,1,0-2h2.666a4.97153,4.97153,0,0,1,3.69825,1.65332.99947.99947,0,0,1-.74415,1.667ZM4.36816,2.04492A1.00022,1.00022,0,0,1,4.21973.05566,5.07594,5.07594,0,0,1,4.9668,0h5.40039a1,1,0,0,1,0,2H4.9668a2.93437,2.93437,0,0,0-.44825.03418A1.13481,1.13481,0,0,1,4.36816,2.04492ZM286.36719,2h-6a1,1,0,0,1,0-2h6a1,1,0,0,1,0,2Zm-12,0h-6a1,1,0,0,1,0-2h6a1,1,0,0,1,0,2Zm-12,0h-6a1,1,0,0,1,0-2h6a1,1,0,0,1,0,2Zm-12,0h-6a1,1,0,0,1,0-2h6a1,1,0,0,1,0,2Zm-12,0h-6a1,1,0,0,1,0-2h6a1,1,0,0,1,0,2Zm-12,0h-6a1,1,0,0,1,0-2h6a1,1,0,0,1,0,2Zm-12,0h-6a1,1,0,0,1,0-2h6a1,1,0,0,1,0,2Zm-12,0h-6a1,1,0,0,1,0-2h6a1,1,0,0,1,0,2Zm-12,0h-6a1,1,0,0,1,0-2h6a1,1,0,0,1,0,2Zm-12,0h-6a1,1,0,0,1,0-2h6a1,1,0,0,1,0,2Zm-12,0h-6a1,1,0,0,1,0-2h6a1,1,0,0,1,0,2Zm-12,0h-6a1,1,0,0,1,0-2h6a1,1,0,0,1,0,2Zm-12,0h-6a1,1,0,0,1,0-2h6a1,1,0,0,1,0,2Zm-12,0h-6a1,1,0,0,1,0-2h6a1,1,0,0,1,0,2Zm-12,0h-6a1,1,0,0,1,0-2h6a1,1,0,0,1,0,2Zm-12,0h-6a1,1,0,0,1,0-2h6a1,1,0,0,1,0,2Zm-12,0h-6a1,1,0,0,1,0-2h6a1,1,0,0,1,0,2Zm-12,0h-6a1,1,0,0,1,0-2h6a1,1,0,0,1,0,2Zm-12,0h-6a1,1,0,1,1,0-2h6a1,1,0,0,1,0,2Zm-12,0h-6a1,1,0,0,1,0-2h6a1,1,0,0,1,0,2Zm-12,0h-6a1,1,0,0,1,0-2h6a1,1,0,0,1,0,2Zm-12,0h-6a1,1,0,0,1,0-2h6a1,1,0,0,1,0,2Zm-12,0h-6a1,1,0,0,1,0-2h6a1,1,0,0,1,0,2Z"/>
  <g>
    <circle class="cls-2" cx="84" cy="34" r="1"/>
    <circle class="cls-2" cx="106" cy="34" r="1"/>
    <circle class="cls-2" cx="194" cy="34" r="1"/>
    <circle class="cls-2" cx="216" cy="34" r="1"/>
    <circle class="cls-2" cx="84" cy="56" r="1"/>
    <circle class="cls-2" cx="216" cy="56" r="1"/>
    <circle class="cls-2" cx="128" cy="78" r="1"/>
    <circle class="cls-2" cx="150" cy="78" r="1"/>
    <circle class="cls-2" cx="172" cy="78" r="1"/>
    <circle class="cls-2" cx="128" cy="100" r="1"/>
    <circle class="cls-2" cx="150" cy="100" r="1"/>
    <circle class="cls-2" cx="172" cy="100" r="1"/>
    <circle class="cls-2" cx="128" cy="122" r="1"/>
    <circle class="cls-2" cx="150" cy="122" r="1"/>
    <circle class="cls-2" cx="172" cy="122" r="1"/>
    <circle class="cls-2" cx="84" cy="144" r="1"/>
    <circle class="cls-2" cx="216" cy="144" r="1"/>
    <circle class="cls-2" cx="84" cy="166" r="1"/>
    <circle class="cls-2" cx="61" cy="34" r="1"/>
    <circle class="cls-2" cx="61" cy="56" r="1"/>
    <circle class="cls-2" cx="61" cy="78" r="1"/>
    <circle class="cls-2" cx="61" cy="100" r="1"/>
    <circle class="cls-2" cx="61" cy="122" r="1"/>
    <circle class="cls-2" cx="61" cy="144" r="1"/>
    <circle class="cls-2" cx="61" cy="166" r="1"/>
    <circle class="cls-2" cx="239" cy="34" r="1"/>
    <circle class="cls-2" cx="239" cy="56" r="1"/>
    <circle class="cls-2" cx="239" cy="78" r="1"/>
    <circle class="cls-2" cx="239" cy="100" r="1"/>
    <circle class="cls-2" cx="239" cy="122" r="1"/>
    <circle class="cls-2" cx="239" cy="144" r="1"/>
    <circle class="cls-2" cx="239" cy="166" r="1"/>
    <circle class="cls-2" cx="106" cy="166" r="1"/>
    <circle class="cls-2" cx="194" cy="166" r="1"/>
    <circle class="cls-2" cx="216" cy="166" r="1"/>
  </g>
  <path class="cls-2" d="M148.39648,175A73.51191,73.51191,0,0,1,76.624,116.93652a1.50052,1.50052,0,0,1,1.20606-1.791l27.62207-4.87012a1.49242,1.49242,0,0,1,1.71973,1.12891,42.49736,42.49736,0,0,0,76.418,14.07129,1.50312,1.50312,0,0,1,2.00977-.43848l24.03418,14.44043a1.49961,1.49961,0,0,1,.4834,2.10547,73.90986,73.90986,0,0,1-26.05078,24.251A73.16752,73.16752,0,0,1,148.52246,175C148.48047,174.99805,148.43652,174.999,148.39648,175ZM79.89941,117.82715a69.70834,69.70834,0,0,0,8.53809,20.60742,70.70353,70.70353,0,0,0,35.96289,29.33887A69.2434,69.2434,0,0,0,148.49805,172h.02246a70.87581,70.87581,0,0,0,17.88672-2.29492,70.38759,70.38759,0,0,0,30.13086-16.60938,71.00149,71.00149,0,0,0,10.20117-11.85644l-21.49219-12.91309a45.497,45.497,0,0,1-80.64355-14.85449Zm131.05274,21.02637c-.043,0-.08692-.002-.12988-.00489a1.49716,1.49716,0,0,1-.69239-.23828L186.15918,124.207a1.501,1.501,0,0,1-.53711-2.01758,42.48728,42.48728,0,0,0,.00195-41.376,1.5,1.5,0,0,1,.49219-1.98926L209.6416,63.54688a1.49994,1.49994,0,0,1,2.10742.49218,73.45693,73.45693,0,0,1,.542,73.98828,1.49723,1.49723,0,0,1-1.12305.81055A1.44957,1.44957,0,0,1,210.95215,138.85352Zm-22.02246-16.48243,21.46777,12.89942A70.231,70.231,0,0,0,219,101.50195v-.001a70.17561,70.17561,0,0,0-9.04785-34.57813l-21.043,13.665a45.49411,45.49411,0,0,1,.02051,41.7832ZM77.36328,114.19531A1.49968,1.49968,0,0,1,75.874,112.874a74.14374,74.14374,0,0,1,1.52051-30.05175,73.17776,73.17776,0,0,1,6.7832-16.91114,1.49972,1.49972,0,0,1,2.084-.55859L110.29785,79.7959a1.5007,1.5007,0,0,1,.55567,1.9834A42.00377,42.00377,0,0,0,106,101.5a43.0947,43.0947,0,0,0,.44336,6.11523,1.49927,1.49927,0,0,1-1.22363,1.69141L77.624,114.17285A1.56675,1.56675,0,0,1,77.36328,114.19531ZM86.0625,68.7334A70.16964,70.16964,0,0,0,77.999,101.5a71.5595,71.5595,0,0,0,.62793,9.44922l24.66211-4.34863a45.426,45.426,0,0,1,4.26953-24.9502ZM111.544,79.13086a1.49746,1.49746,0,0,1-.77149-.21387L86.75488,64.48535a1.50163,1.50163,0,0,1-.49707-2.08594,73.85469,73.85469,0,0,1,24.50781-23.97656A73.003,73.003,0,0,1,144.419,28.125a1.53664,1.53664,0,0,1,1.1123.40918A1.49667,1.49667,0,0,1,146,29.62305v28.0664a1.5002,1.5002,0,0,1-1.36523,1.49414,42.2243,42.2243,0,0,0-31.83106,19.2627A1.49779,1.49779,0,0,1,111.544,79.13086Zm-21.917-16.41992,21.46582,12.89844A45.16754,45.16754,0,0,1,143,56.33887V31.22461A70.57089,70.57089,0,0,0,89.62695,62.71094ZM144.5,57.68945h0Zm40.33008,20.49024a1.50027,1.50027,0,0,1-1.23926-.65235,42.70145,42.70145,0,0,0-16.61133-14.30859,1.50045,1.50045,0,0,1-.72754-1.93652l10.94922-25.79785A1.49934,1.49934,0,0,1,179.21,34.708a73.68312,73.68312,0,0,1,30.35645,25.88086,1.50054,1.50054,0,0,1-.42871,2.09375L185.64648,77.9375A1.49494,1.49494,0,0,1,184.83008,78.17969ZM169.5625,61.16016a45.74064,45.74064,0,0,1,15.6582,13.47656l20.99219-13.63184A70.66412,70.66412,0,0,0,179.35156,38.0957Zm-5.7832.56933a1.49174,1.49174,0,0,1-.52051-.09375A42.36532,42.36532,0,0,0,148.5,59a1.50039,1.50039,0,0,1-1.5-1.5l-.001-28a1.49977,1.49977,0,0,1,1.49707-1.5h.1211A72.85142,72.85142,0,0,1,175.376,33.06934a1.50168,1.50168,0,0,1,.83007,1.9873L165.1582,60.82031A1.50144,1.50144,0,0,1,163.7793,61.72949ZM149.999,56.02441a45.3215,45.3215,0,0,1,12.95508,2.32325L172.832,35.31152a69.78036,69.78036,0,0,0-22.833-4.29785Z"/>
</svg>
