<svg id="production" xmlns="http://www.w3.org/2000/svg" width="300" height="200" viewBox="0 0 300 200">
  <defs>
    <style>
      .cls-1 {
        fill: #e1e1e1;
      }

      .cls-2 {
        fill: #cacaca;
      }
    </style>
  </defs>
  <title>S_IlluLineChart_300</title>
  <path class="cls-1" d="M295.0332,200h-6a1,1,0,0,1,0-2h6a2.9574,2.9574,0,0,0,.88379-.13379,1.0003,1.0003,0,0,1,.59473,1.91016A4.97158,4.97158,0,0,1,295.0332,200Zm-12,0h-6a1,1,0,0,1,0-2h6a1,1,0,0,1,0,2Zm-12,0h-6a1,1,0,0,1,0-2h6a1,1,0,0,1,0,2Zm-12,0h-6a1,1,0,1,1,0-2h6a1,1,0,0,1,0,2Zm-12,0h-6a1,1,0,1,1,0-2h6a1,1,0,0,1,0,2Zm-12,0h-6a1,1,0,1,1,0-2h6a1,1,0,0,1,0,2Zm-12,0h-6a1,1,0,1,1,0-2h6a1,1,0,0,1,0,2Zm-12,0h-6a1,1,0,1,1,0-2h6a1,1,0,0,1,0,2Zm-12,0h-6a1,1,0,1,1,0-2h6a1,1,0,0,1,0,2Zm-12,0h-6a1,1,0,1,1,0-2h6a1,1,0,0,1,0,2Zm-12,0h-6a1,1,0,1,1,0-2h6a1,1,0,0,1,0,2Zm-12,0h-6a1,1,0,1,1,0-2h6a1,1,0,0,1,0,2Zm-12,0h-6a1,1,0,1,1,0-2h6a1,1,0,0,1,0,2Zm-12,0h-6a1,1,0,1,1,0-2h6a1,1,0,0,1,0,2Zm-12,0h-6a1,1,0,1,1,0-2h6a1,1,0,0,1,0,2Zm-12,0h-6a1,1,0,1,1,0-2h6a1,1,0,0,1,0,2Zm-12,0h-6a1,1,0,1,1,0-2h6a1,1,0,0,1,0,2Zm-12,0h-6a1,1,0,1,1,0-2h6a1,1,0,0,1,0,2Zm-12,0h-6a1,1,0,1,1,0-2h6a1,1,0,0,1,0,2Zm-12,0h-6a1,1,0,0,1,0-2h6a1,1,0,0,1,0,2Zm-12,0h-6a1,1,0,1,1,0-2h6a1,1,0,0,1,0,2Zm-12,0h-6a1,1,0,1,1,0-2h6a1,1,0,0,1,0,2Zm-12,0h-6a1,1,0,1,1,0-2h6a1,1,0,0,1,0,2Zm-12,0h-6a1,1,0,1,1,0-2h6a1,1,0,0,1,0,2Zm-12,0H4.9668a4.95452,4.95452,0,0,1-4.15528-2.24609.99988.99988,0,0,1,1.67286-1.09571A2.961,2.961,0,0,0,4.9668,198H7.0332a1,1,0,1,1,0,2ZM299,195.06738a.99973.99973,0,0,1-1-1v-6a1,1,0,0,1,2,0v6A.99973.99973,0,0,1,299,195.06738ZM1,192.333a.99974.99974,0,0,1-1-1v-6a1,1,0,0,1,2,0v6A.99974.99974,0,0,1,1,192.333Zm298-9.26563a.99973.99973,0,0,1-1-1v-6a1,1,0,0,1,2,0v6A.99973.99973,0,0,1,299,183.06738ZM1,180.333a.99974.99974,0,0,1-1-1v-6a1,1,0,0,1,2,0v6A.99974.99974,0,0,1,1,180.333Zm298-9.26563a.99973.99973,0,0,1-1-1v-6a1,1,0,0,1,2,0v6A.99973.99973,0,0,1,299,171.06738ZM1,168.333a.99974.99974,0,0,1-1-1v-6a1,1,0,0,1,2,0v6A.99974.99974,0,0,1,1,168.333Zm298-9.26563a.99973.99973,0,0,1-1-1v-6a1,1,0,0,1,2,0v6A.99973.99973,0,0,1,299,159.06738ZM1,156.333a.99974.99974,0,0,1-1-1v-6a1,1,0,0,1,2,0v6A.99974.99974,0,0,1,1,156.333Zm298-9.26563a.99973.99973,0,0,1-1-1v-6a1,1,0,0,1,2,0v6A.99973.99973,0,0,1,299,147.06738ZM1,144.333a.99974.99974,0,0,1-1-1v-6a1,1,0,0,1,2,0v6A.99974.99974,0,0,1,1,144.333Zm298-9.26563a.99973.99973,0,0,1-1-1v-6a1,1,0,0,1,2,0v6A.99973.99973,0,0,1,299,135.06738ZM1,132.333a.99974.99974,0,0,1-1-1v-6a1,1,0,0,1,2,0v6A.99974.99974,0,0,1,1,132.333Zm298-9.26563a.99973.99973,0,0,1-1-1v-6a1,1,0,0,1,2,0v6A.99973.99973,0,0,1,299,123.06738ZM1,120.333a.99974.99974,0,0,1-1-1v-6a1,1,0,0,1,2,0v6A.99974.99974,0,0,1,1,120.333Zm298-9.26563a.99973.99973,0,0,1-1-1v-6a1,1,0,0,1,2,0v6A.99973.99973,0,0,1,299,111.06738ZM1,108.333a.99974.99974,0,0,1-1-1v-6a1,1,0,0,1,2,0v6A.99974.99974,0,0,1,1,108.333Zm298-9.26563a.99973.99973,0,0,1-1-1v-6a1,1,0,0,1,2,0v6A.99973.99973,0,0,1,299,99.06738ZM1,96.333a.99974.99974,0,0,1-1-1v-6a1,1,0,0,1,2,0v6A.99974.99974,0,0,1,1,96.333Zm298-9.26563a.99973.99973,0,0,1-1-1v-6a1,1,0,0,1,2,0v6A.99973.99973,0,0,1,299,87.06738ZM1,84.333a.99974.99974,0,0,1-1-1v-6a1,1,0,0,1,2,0v6A.99974.99974,0,0,1,1,84.333Zm298-9.26563a.99973.99973,0,0,1-1-1v-6a1,1,0,0,1,2,0v6A.99973.99973,0,0,1,299,75.06738ZM1,72.333a.99974.99974,0,0,1-1-1v-6a1,1,0,0,1,2,0v6A.99974.99974,0,0,1,1,72.333Zm298-9.26563a.99973.99973,0,0,1-1-1v-6a1,1,0,0,1,2,0v6A.99973.99973,0,0,1,299,63.06738ZM1,60.333a.99974.99974,0,0,1-1-1v-6a1,1,0,0,1,2,0v6A.99974.99974,0,0,1,1,60.333Zm298-9.26563a.99973.99973,0,0,1-1-1v-6a1,1,0,0,1,2,0v6A.99973.99973,0,0,1,299,51.06738ZM1,48.333a.99974.99974,0,0,1-1-1v-6a1,1,0,0,1,2,0v6A.99974.99974,0,0,1,1,48.333Zm298-9.26563a.99973.99973,0,0,1-1-1v-6a1,1,0,0,1,2,0v6A.99973.99973,0,0,1,299,39.06738ZM1,36.333a.99974.99974,0,0,1-1-1v-6a1,1,0,0,1,2,0v6A.99974.99974,0,0,1,1,36.333Zm298-9.26563a.99973.99973,0,0,1-1-1v-6a1,1,0,0,1,2,0v6A.99973.99973,0,0,1,299,27.06738ZM1,24.333a.99974.99974,0,0,1-1-1v-6a1,1,0,0,1,2,0v6A.99974.99974,0,0,1,1,24.333Zm298-9.26563a.99973.99973,0,0,1-1-1v-6a1,1,0,0,1,2,0v6A.99973.99973,0,0,1,299,15.06738ZM1,12.333a.99974.99974,0,0,1-1-1v-6a1,1,0,0,1,2,0v6A.99974.99974,0,0,1,1,12.333ZM297.98779,3.31934a.99791.99791,0,0,1-.74463-.332A2.97209,2.97209,0,0,0,295.0332,2h-2.6665a1,1,0,0,1,0-2h2.6665a4.97474,4.97474,0,0,1,3.69825,1.65137,1,1,0,0,1-.74366,1.668ZM4.36768,2.04492A1.00023,1.00023,0,0,1,4.22021.05566,5.08465,5.08465,0,0,1,4.9668,0h5.40039a1,1,0,0,1,0,2H4.9668a2.95009,2.95009,0,0,0-.44873.03418A1.12333,1.12333,0,0,1,4.36768,2.04492ZM286.3667,2h-6a1,1,0,0,1,0-2h6a1,1,0,0,1,0,2Zm-12,0h-6a1,1,0,0,1,0-2h6a1,1,0,0,1,0,2Zm-12,0h-6a1,1,0,0,1,0-2h6a1,1,0,0,1,0,2Zm-12,0h-6a1,1,0,0,1,0-2h6a1,1,0,0,1,0,2Zm-12,0h-6a1,1,0,0,1,0-2h6a1,1,0,0,1,0,2Zm-12,0h-6a1,1,0,0,1,0-2h6a1,1,0,0,1,0,2Zm-12,0h-6a1,1,0,0,1,0-2h6a1,1,0,0,1,0,2ZM202.36719,2h-6a1,1,0,0,1,0-2h6a1,1,0,0,1,0,2Zm-12,0h-6a1,1,0,0,1,0-2h6a1,1,0,0,1,0,2Zm-12,0h-6a1,1,0,0,1,0-2h6a1,1,0,0,1,0,2Zm-12,0h-6a1,1,0,0,1,0-2h6a1,1,0,0,1,0,2Zm-12,0h-6a1,1,0,0,1,0-2h6a1,1,0,0,1,0,2Zm-12,0h-6a1,1,0,0,1,0-2h6a1,1,0,0,1,0,2Zm-12,0h-6a1,1,0,0,1,0-2h6a1,1,0,0,1,0,2Zm-12,0h-6a1,1,0,0,1,0-2h6a1,1,0,0,1,0,2Zm-12,0h-6a1,1,0,0,1,0-2h6a1,1,0,0,1,0,2Zm-12,0h-6a1,1,0,0,1,0-2h6a1,1,0,0,1,0,2Zm-12,0h-6a1,1,0,0,1,0-2h6a1,1,0,0,1,0,2Zm-12,0h-6a1,1,0,1,1,0-2h6a1,1,0,0,1,0,2Zm-12,0h-6a1,1,0,0,1,0-2h6a1,1,0,0,1,0,2Zm-12,0h-6a1,1,0,0,1,0-2h6a1,1,0,0,1,0,2Zm-12,0h-6a1,1,0,0,1,0-2h6a1,1,0,0,1,0,2Zm-12,0h-6a1,1,0,0,1,0-2h6a1,1,0,0,1,0,2Z"/>
  <path class="cls-2" d="M280.5,160H19.5a1.50008,1.50008,0,0,1-1.5-1.5V37.5a1.5,1.5,0,0,1,3,0V157H280.5a1.5,1.5,0,0,1,0,3Z"/>
  <circle class="cls-2" cx="40" cy="49" r="1"/>
  <circle class="cls-2" cx="62" cy="49" r="1"/>
  <circle class="cls-2" cx="84" cy="49" r="1"/>
  <circle class="cls-2" cx="106" cy="49" r="1"/>
  <circle class="cls-2" cx="128" cy="49" r="1"/>
  <circle class="cls-2" cx="150" cy="49" r="1"/>
  <circle class="cls-2" cx="172" cy="49" r="1"/>
  <circle class="cls-2" cx="194" cy="49" r="1"/>
  <circle class="cls-2" cx="216" cy="49" r="1"/>
  <circle class="cls-2" cx="238" cy="49" r="1"/>
  <circle class="cls-2" cx="260" cy="49" r="1"/>
  <circle class="cls-2" cx="40" cy="71" r="1"/>
  <circle class="cls-2" cx="62" cy="71" r="1"/>
  <circle class="cls-2" cx="84" cy="71" r="1"/>
  <circle class="cls-2" cx="106" cy="71" r="1"/>
  <circle class="cls-2" cx="128" cy="71" r="1"/>
  <circle class="cls-2" cx="150" cy="71" r="1"/>
  <circle class="cls-2" cx="172" cy="71" r="1"/>
  <circle class="cls-2" cx="194" cy="71" r="1"/>
  <circle class="cls-2" cx="216" cy="71" r="1"/>
  <circle class="cls-2" cx="238" cy="71" r="1"/>
  <circle class="cls-2" cx="260" cy="71" r="1"/>
  <circle class="cls-2" cx="40" cy="93" r="1"/>
  <circle class="cls-2" cx="62" cy="93" r="1"/>
  <circle class="cls-2" cx="84" cy="93" r="1"/>
  <circle class="cls-2" cx="106" cy="93" r="1"/>
  <circle class="cls-2" cx="128" cy="93" r="1"/>
  <circle class="cls-2" cx="150" cy="93" r="1"/>
  <circle class="cls-2" cx="172" cy="93" r="1"/>
  <circle class="cls-2" cx="194" cy="93" r="1"/>
  <circle class="cls-2" cx="216" cy="93" r="1"/>
  <circle class="cls-2" cx="238" cy="93" r="1"/>
  <circle class="cls-2" cx="260" cy="93" r="1"/>
  <circle class="cls-2" cx="40" cy="115" r="1"/>
  <circle class="cls-2" cx="62" cy="115" r="1"/>
  <circle class="cls-2" cx="84" cy="115" r="1"/>
  <circle class="cls-2" cx="106" cy="115" r="1"/>
  <circle class="cls-2" cx="128" cy="115" r="1"/>
  <circle class="cls-2" cx="150" cy="115" r="1"/>
  <circle class="cls-2" cx="172" cy="115" r="1"/>
  <circle class="cls-2" cx="194" cy="115" r="1"/>
  <circle class="cls-2" cx="216" cy="115" r="1"/>
  <circle class="cls-2" cx="238" cy="115" r="1"/>
  <circle class="cls-2" cx="260" cy="115" r="1"/>
  <circle class="cls-2" cx="40" cy="137" r="1"/>
  <circle class="cls-2" cx="62" cy="137" r="1"/>
  <circle class="cls-2" cx="84" cy="137" r="1"/>
  <circle class="cls-2" cx="106" cy="137" r="1"/>
  <circle class="cls-2" cx="128" cy="137" r="1"/>
  <circle class="cls-2" cx="150" cy="137" r="1"/>
  <circle class="cls-2" cx="172" cy="137" r="1"/>
  <circle class="cls-2" cx="194" cy="137" r="1"/>
  <circle class="cls-2" cx="216" cy="137" r="1"/>
  <circle class="cls-2" cx="238" cy="137" r="1"/>
  <circle class="cls-2" cx="260" cy="137" r="1"/>
  <path class="cls-2" d="M26.00146,133a1.49968,1.49968,0,0,1-.75292-2.79785l19-11a1.49873,1.49873,0,0,1,1.52343.01172l9.08252,5.44922,24.18067-20.31153a1.49751,1.49751,0,0,1,1.52832-.24121l36.24707,14.69434L139.05273,103.332l16.91944-15.9248a1.50807,1.50807,0,0,1,1.61865-.28614l20.06641,8.60059,20.28222-20.28223A1.49977,1.49977,0,0,1,199,75h26a1.49986,1.49986,0,0,1,.84961.26367l14.88574,10.23438,22.12256-25.97071a1.50015,1.50015,0,0,1,2.28418,1.94532l-23,27a1.49807,1.49807,0,0,1-1.9917.26367L224.53418,78H199.62109L179.06055,98.56055a1.50239,1.50239,0,0,1-1.65137.31836L157.3125,90.26562l-16.28467,15.32715a1.51953,1.51953,0,0,1-.17138.13868l-23,16a1.49235,1.49235,0,0,1-1.41993.1582L80.27344,107.22949l-24.3086,20.41895a1.50007,1.50007,0,0,1-1.73681.13769l-9.2417-5.54492L26.75146,132.79785A1.48506,1.48506,0,0,1,26.00146,133Z"/>
</svg>
