<svg id="production" xmlns="http://www.w3.org/2000/svg" width="300" height="200" viewBox="0 0 300 200">
  <defs>
    <style>
      .cls-1 {
        fill: #e1e1e1;
      }

      .cls-2 {
        fill: #cacaca;
      }
    </style>
  </defs>
  <title>S_illuPieChart_300</title>
  <path class="cls-1" d="M295.0332,200h-6a1,1,0,0,1,0-2h6a2.9574,2.9574,0,0,0,.88379-.13379,1.0003,1.0003,0,0,1,.59473,1.91016A4.97158,4.97158,0,0,1,295.0332,200Zm-12,0h-6a1,1,0,0,1,0-2h6a1,1,0,0,1,0,2Zm-12,0h-6a1,1,0,0,1,0-2h6a1,1,0,0,1,0,2Zm-12,0h-6a1,1,0,1,1,0-2h6a1,1,0,0,1,0,2Zm-12,0h-6a1,1,0,1,1,0-2h6a1,1,0,0,1,0,2Zm-12,0h-6a1,1,0,1,1,0-2h6a1,1,0,0,1,0,2Zm-12,0h-6a1,1,0,1,1,0-2h6a1,1,0,0,1,0,2Zm-12,0h-6a1,1,0,1,1,0-2h6a1,1,0,0,1,0,2Zm-12,0h-6a1,1,0,1,1,0-2h6a1,1,0,0,1,0,2Zm-12,0h-6a1,1,0,1,1,0-2h6a1,1,0,0,1,0,2Zm-12,0h-6a1,1,0,1,1,0-2h6a1,1,0,0,1,0,2Zm-12,0h-6a1,1,0,1,1,0-2h6a1,1,0,0,1,0,2Zm-12,0h-6a1,1,0,1,1,0-2h6a1,1,0,0,1,0,2Zm-12,0h-6a1,1,0,1,1,0-2h6a1,1,0,0,1,0,2Zm-12,0h-6a1,1,0,1,1,0-2h6a1,1,0,0,1,0,2Zm-12,0h-6a1,1,0,1,1,0-2h6a1,1,0,0,1,0,2Zm-12,0h-6a1,1,0,1,1,0-2h6a1,1,0,0,1,0,2Zm-12,0h-6a1,1,0,1,1,0-2h6a1,1,0,0,1,0,2Zm-12,0h-6a1,1,0,1,1,0-2h6a1,1,0,0,1,0,2Zm-12,0h-6a1,1,0,0,1,0-2h6a1,1,0,0,1,0,2Zm-12,0h-6a1,1,0,1,1,0-2h6a1,1,0,0,1,0,2Zm-12,0h-6a1,1,0,1,1,0-2h6a1,1,0,0,1,0,2Zm-12,0h-6a1,1,0,1,1,0-2h6a1,1,0,0,1,0,2Zm-12,0h-6a1,1,0,1,1,0-2h6a1,1,0,0,1,0,2Zm-12,0H4.9668a4.95452,4.95452,0,0,1-4.15528-2.24609.99988.99988,0,0,1,1.67286-1.09571A2.961,2.961,0,0,0,4.9668,198H7.0332a1,1,0,1,1,0,2ZM299,195.06738a.99973.99973,0,0,1-1-1v-6a1,1,0,0,1,2,0v6A.99973.99973,0,0,1,299,195.06738ZM1,192.333a.99974.99974,0,0,1-1-1v-6a1,1,0,0,1,2,0v6A.99974.99974,0,0,1,1,192.333Zm298-9.26563a.99973.99973,0,0,1-1-1v-6a1,1,0,0,1,2,0v6A.99973.99973,0,0,1,299,183.06738ZM1,180.333a.99974.99974,0,0,1-1-1v-6a1,1,0,0,1,2,0v6A.99974.99974,0,0,1,1,180.333Zm298-9.26563a.99973.99973,0,0,1-1-1v-6a1,1,0,0,1,2,0v6A.99973.99973,0,0,1,299,171.06738ZM1,168.333a.99974.99974,0,0,1-1-1v-6a1,1,0,0,1,2,0v6A.99974.99974,0,0,1,1,168.333Zm298-9.26563a.99973.99973,0,0,1-1-1v-6a1,1,0,0,1,2,0v6A.99973.99973,0,0,1,299,159.06738ZM1,156.333a.99974.99974,0,0,1-1-1v-6a1,1,0,0,1,2,0v6A.99974.99974,0,0,1,1,156.333Zm298-9.26563a.99973.99973,0,0,1-1-1v-6a1,1,0,0,1,2,0v6A.99973.99973,0,0,1,299,147.06738ZM1,144.333a.99974.99974,0,0,1-1-1v-6a1,1,0,0,1,2,0v6A.99974.99974,0,0,1,1,144.333Zm298-9.26563a.99973.99973,0,0,1-1-1v-6a1,1,0,0,1,2,0v6A.99973.99973,0,0,1,299,135.06738ZM1,132.333a.99974.99974,0,0,1-1-1v-6a1,1,0,0,1,2,0v6A.99974.99974,0,0,1,1,132.333Zm298-9.26563a.99973.99973,0,0,1-1-1v-6a1,1,0,0,1,2,0v6A.99973.99973,0,0,1,299,123.06738ZM1,120.333a.99974.99974,0,0,1-1-1v-6a1,1,0,0,1,2,0v6A.99974.99974,0,0,1,1,120.333Zm298-9.26563a.99973.99973,0,0,1-1-1v-6a1,1,0,0,1,2,0v6A.99973.99973,0,0,1,299,111.06738ZM1,108.333a.99974.99974,0,0,1-1-1v-6a1,1,0,0,1,2,0v6A.99974.99974,0,0,1,1,108.333Zm298-9.26563a.99973.99973,0,0,1-1-1v-6a1,1,0,0,1,2,0v6A.99973.99973,0,0,1,299,99.06738ZM1,96.333a.99974.99974,0,0,1-1-1v-6a1,1,0,0,1,2,0v6A.99974.99974,0,0,1,1,96.333Zm298-9.26563a.99973.99973,0,0,1-1-1v-6a1,1,0,0,1,2,0v6A.99973.99973,0,0,1,299,87.06738ZM1,84.333a.99974.99974,0,0,1-1-1v-6a1,1,0,0,1,2,0v6A.99974.99974,0,0,1,1,84.333Zm298-9.26563a.99973.99973,0,0,1-1-1v-6a1,1,0,0,1,2,0v6A.99973.99973,0,0,1,299,75.06738ZM1,72.333a.99974.99974,0,0,1-1-1v-6a1,1,0,0,1,2,0v6A.99974.99974,0,0,1,1,72.333Zm298-9.26563a.99973.99973,0,0,1-1-1v-6a1,1,0,0,1,2,0v6A.99973.99973,0,0,1,299,63.06738ZM1,60.333a.99974.99974,0,0,1-1-1v-6a1,1,0,0,1,2,0v6A.99974.99974,0,0,1,1,60.333Zm298-9.26563a.99973.99973,0,0,1-1-1v-6a1,1,0,0,1,2,0v6A.99973.99973,0,0,1,299,51.06738ZM1,48.333a.99974.99974,0,0,1-1-1v-6a1,1,0,0,1,2,0v6A.99974.99974,0,0,1,1,48.333Zm298-9.26563a.99973.99973,0,0,1-1-1v-6a1,1,0,0,1,2,0v6A.99973.99973,0,0,1,299,39.06738ZM1,36.333a.99974.99974,0,0,1-1-1v-6a1,1,0,0,1,2,0v6A.99974.99974,0,0,1,1,36.333Zm298-9.26563a.99973.99973,0,0,1-1-1v-6a1,1,0,0,1,2,0v6A.99973.99973,0,0,1,299,27.06738ZM1,24.333a.99974.99974,0,0,1-1-1v-6a1,1,0,0,1,2,0v6A.99974.99974,0,0,1,1,24.333Zm298-9.26563a.99973.99973,0,0,1-1-1v-6a1,1,0,0,1,2,0v6A.99973.99973,0,0,1,299,15.06738ZM1,12.333a.99974.99974,0,0,1-1-1v-6a1,1,0,0,1,2,0v6A.99974.99974,0,0,1,1,12.333ZM297.98779,3.31934a.99791.99791,0,0,1-.74463-.332A2.97209,2.97209,0,0,0,295.0332,2h-2.6665a1,1,0,0,1,0-2h2.6665a4.97474,4.97474,0,0,1,3.69825,1.65137,1,1,0,0,1-.74366,1.668ZM4.36768,2.04492A1.00023,1.00023,0,0,1,4.22021.05566,5.08465,5.08465,0,0,1,4.9668,0h5.40039a1,1,0,0,1,0,2H4.9668a2.95009,2.95009,0,0,0-.44873.03418A1.12333,1.12333,0,0,1,4.36768,2.04492ZM286.3667,2h-6a1,1,0,0,1,0-2h6a1,1,0,0,1,0,2Zm-12,0h-6a1,1,0,0,1,0-2h6a1,1,0,0,1,0,2Zm-12,0h-6a1,1,0,0,1,0-2h6a1,1,0,0,1,0,2Zm-12,0h-6a1,1,0,0,1,0-2h6a1,1,0,0,1,0,2Zm-12,0h-6a1,1,0,0,1,0-2h6a1,1,0,0,1,0,2Zm-12,0h-6a1,1,0,0,1,0-2h6a1,1,0,0,1,0,2Zm-12,0h-6a1,1,0,0,1,0-2h6a1,1,0,0,1,0,2ZM202.36719,2h-6a1,1,0,0,1,0-2h6a1,1,0,0,1,0,2Zm-12,0h-6a1,1,0,0,1,0-2h6a1,1,0,0,1,0,2Zm-12,0h-6a1,1,0,0,1,0-2h6a1,1,0,0,1,0,2Zm-12,0h-6a1,1,0,0,1,0-2h6a1,1,0,0,1,0,2Zm-12,0h-6a1,1,0,0,1,0-2h6a1,1,0,0,1,0,2Zm-12,0h-6a1,1,0,0,1,0-2h6a1,1,0,0,1,0,2Zm-12,0h-6a1,1,0,0,1,0-2h6a1,1,0,0,1,0,2Zm-12,0h-6a1,1,0,0,1,0-2h6a1,1,0,0,1,0,2Zm-12,0h-6a1,1,0,0,1,0-2h6a1,1,0,0,1,0,2Zm-12,0h-6a1,1,0,0,1,0-2h6a1,1,0,0,1,0,2Zm-12,0h-6a1,1,0,0,1,0-2h6a1,1,0,0,1,0,2Zm-12,0h-6a1,1,0,1,1,0-2h6a1,1,0,0,1,0,2Zm-12,0h-6a1,1,0,0,1,0-2h6a1,1,0,0,1,0,2Zm-12,0h-6a1,1,0,0,1,0-2h6a1,1,0,0,1,0,2Zm-12,0h-6a1,1,0,0,1,0-2h6a1,1,0,0,1,0,2Zm-12,0h-6a1,1,0,0,1,0-2h6a1,1,0,0,1,0,2Z"/>
  <g>
    <circle class="cls-2" cx="84" cy="34" r="1"/>
    <circle class="cls-2" cx="106" cy="34" r="1"/>
    <circle class="cls-2" cx="194" cy="34" r="1"/>
    <circle class="cls-2" cx="216" cy="34" r="1"/>
    <circle class="cls-2" cx="84" cy="56" r="1"/>
    <circle class="cls-2" cx="216" cy="56" r="1"/>
    <circle class="cls-2" cx="216" cy="78" r="1"/>
    <circle class="cls-2" cx="84" cy="144" r="1"/>
    <circle class="cls-2" cx="216" cy="144" r="1"/>
    <circle class="cls-2" cx="84" cy="166" r="1"/>
    <circle class="cls-2" cx="61" cy="34" r="1"/>
    <circle class="cls-2" cx="61" cy="56" r="1"/>
    <circle class="cls-2" cx="61" cy="78" r="1"/>
    <circle class="cls-2" cx="61" cy="100" r="1"/>
    <circle class="cls-2" cx="61" cy="122" r="1"/>
    <circle class="cls-2" cx="61" cy="144" r="1"/>
    <circle class="cls-2" cx="61" cy="166" r="1"/>
    <circle class="cls-2" cx="239" cy="34" r="1"/>
    <circle class="cls-2" cx="239" cy="56" r="1"/>
    <circle class="cls-2" cx="239" cy="78" r="1"/>
    <circle class="cls-2" cx="239" cy="100" r="1"/>
    <circle class="cls-2" cx="239" cy="122" r="1"/>
    <circle class="cls-2" cx="239" cy="144" r="1"/>
    <circle class="cls-2" cx="239" cy="166" r="1"/>
    <circle class="cls-2" cx="106" cy="166" r="1"/>
    <circle class="cls-2" cx="194" cy="166" r="1"/>
    <circle class="cls-2" cx="216" cy="166" r="1"/>
  </g>
  <g id="Path_11" data-name="Path 11">
    <path class="cls-2" d="M148.39844,175A73.5119,73.5119,0,0,1,76.624,116.93652a1.50038,1.50038,0,0,1,1.20655-1.791l70.04-12.34961a1.53748,1.53748,0,0,1,1.03271.1914l60.73047,36.49024a1.50028,1.50028,0,0,1,.48389,2.10547,73.90179,73.90179,0,0,1-26.05176,24.251A73.16006,73.16006,0,0,1,148.52246,175C148.48291,174.99707,148.43994,174.999,148.39844,175Zm-68.499-57.17285a69.70154,69.70154,0,0,0,8.53809,20.60742A70.384,70.384,0,0,0,148.39893,172c.03369,0,.02441.0166.10156,0h.02246a70.86823,70.86823,0,0,0,17.88428-2.29492,70.38544,70.38544,0,0,0,30.13134-16.60938,71.02767,71.02767,0,0,0,10.20118-11.85644l-58.90088-35.3916Zm131.05274,21.02637a1.50971,1.50971,0,0,1-.832-.25l-58.22364-34.98438a1.49983,1.49983,0,0,1-.04443-2.54394l57.79-37.52832a1.49858,1.49858,0,0,1,2.10645.49218,73.46277,73.46277,0,0,1,.54638,73.9834A1.5,1.5,0,0,1,210.95215,138.85352ZM155.499,102.2832,210.398,135.27051a70.4524,70.4524,0,0,0-.44629-68.34766ZM77.36328,114.19531A1.49877,1.49877,0,0,1,75.874,112.874a74.54347,74.54347,0,0,1-.875-11.373,73.17483,73.17483,0,0,1,9.17871-35.58985,1.49943,1.49943,0,0,1,2.084-.55859l57.41406,34.5a1.50031,1.50031,0,0,1-.51221,2.76367l-65.54,11.55664A1.56115,1.56115,0,0,1,77.36328,114.19531ZM86.0625,68.7334A70.16964,70.16964,0,0,0,77.999,101.5a71.54288,71.54288,0,0,0,.62842,9.44922l60.06445-10.59082Zm66.34863,30.499a1.50184,1.50184,0,0,1-1.38183-2.08789l26.17187-61.66015A1.49974,1.49974,0,0,1,179.21,34.708a73.67456,73.67456,0,0,1,30.356,25.88086,1.49941,1.49941,0,0,1-.42871,2.09375L153.228,98.99023A1.50268,1.50268,0,0,1,152.41113,99.23242ZM179.35205,38.0957l-23.646,55.708,50.50684-32.79883A70.66139,70.66139,0,0,0,179.35205,38.0957ZM144.49854,98.93945a1.49062,1.49062,0,0,1-.88477-.29L86.75439,64.48535a1.50094,1.50094,0,0,1-.49658-2.08594,73.85469,73.85469,0,0,1,24.50781-23.97656A73.003,73.003,0,0,1,144.419,28.125a1.47714,1.47714,0,0,1,1.11279.40918A1.5,1.5,0,0,1,146,29.62305v67.8164a1.49993,1.49993,0,0,1-1.40674,1.49707C144.56152,98.93848,144.53027,98.93945,144.49854,98.93945ZM89.62695,62.71094,143,94.78125V31.22461A70.57513,70.57513,0,0,0,89.62695,62.71094Zm58.87256,34.65332a1.51793,1.51793,0,0,1-.30224-.03028,1.50063,1.50063,0,0,1-1.19825-1.46972V29.5a1.49987,1.49987,0,0,1,1.49756-1.5h.1211a72.84887,72.84887,0,0,1,26.7583,5.06934,1.49992,1.49992,0,0,1,.82959,1.9873L149.87744,96.45508A1.50033,1.50033,0,0,1,148.49951,97.36426ZM149.999,31.01367V88.56055l22.8335-53.249A69.78328,69.78328,0,0,0,149.999,31.01367Z"/>
  </g>
</svg>
