<svg id="production" xmlns="http://www.w3.org/2000/svg" width="300" height="200" viewBox="0 0 300 200">
  <defs>
    <style>
      .cls-1 {
        fill: #e1e1e1;
      }

      .cls-2 {
        fill: #cacaca;
      }
    </style>
  </defs>
  <title>S_IlluPointChart_300</title>
  <path class="cls-1" d="M295.0332,200h-6a1,1,0,0,1,0-2h6a2.9574,2.9574,0,0,0,.88379-.13379,1.0003,1.0003,0,0,1,.59473,1.91016A4.97158,4.97158,0,0,1,295.0332,200Zm-12,0h-6a1,1,0,0,1,0-2h6a1,1,0,0,1,0,2Zm-12,0h-6a1,1,0,0,1,0-2h6a1,1,0,0,1,0,2Zm-12,0h-6a1,1,0,1,1,0-2h6a1,1,0,0,1,0,2Zm-12,0h-6a1,1,0,1,1,0-2h6a1,1,0,0,1,0,2Zm-12,0h-6a1,1,0,1,1,0-2h6a1,1,0,0,1,0,2Zm-12,0h-6a1,1,0,1,1,0-2h6a1,1,0,0,1,0,2Zm-12,0h-6a1,1,0,1,1,0-2h6a1,1,0,0,1,0,2Zm-12,0h-6a1,1,0,1,1,0-2h6a1,1,0,0,1,0,2Zm-12,0h-6a1,1,0,1,1,0-2h6a1,1,0,0,1,0,2Zm-12,0h-6a1,1,0,1,1,0-2h6a1,1,0,0,1,0,2Zm-12,0h-6a1,1,0,1,1,0-2h6a1,1,0,0,1,0,2Zm-12,0h-6a1,1,0,1,1,0-2h6a1,1,0,0,1,0,2Zm-12,0h-6a1,1,0,1,1,0-2h6a1,1,0,0,1,0,2Zm-12,0h-6a1,1,0,1,1,0-2h6a1,1,0,0,1,0,2Zm-12,0h-6a1,1,0,1,1,0-2h6a1,1,0,0,1,0,2Zm-12,0h-6a1,1,0,1,1,0-2h6a1,1,0,0,1,0,2Zm-12,0h-6a1,1,0,1,1,0-2h6a1,1,0,0,1,0,2Zm-12,0h-6a1,1,0,1,1,0-2h6a1,1,0,0,1,0,2Zm-12,0h-6a1,1,0,0,1,0-2h6a1,1,0,0,1,0,2Zm-12,0h-6a1,1,0,1,1,0-2h6a1,1,0,0,1,0,2Zm-12,0h-6a1,1,0,1,1,0-2h6a1,1,0,0,1,0,2Zm-12,0h-6a1,1,0,1,1,0-2h6a1,1,0,0,1,0,2Zm-12,0h-6a1,1,0,1,1,0-2h6a1,1,0,0,1,0,2Zm-12,0H4.9668a4.95452,4.95452,0,0,1-4.15528-2.24609.99988.99988,0,0,1,1.67286-1.09571A2.961,2.961,0,0,0,4.9668,198H7.0332a1,1,0,1,1,0,2ZM299,195.06738a.99973.99973,0,0,1-1-1v-6a1,1,0,0,1,2,0v6A.99973.99973,0,0,1,299,195.06738ZM1,192.333a.99974.99974,0,0,1-1-1v-6a1,1,0,0,1,2,0v6A.99974.99974,0,0,1,1,192.333Zm298-9.26563a.99973.99973,0,0,1-1-1v-6a1,1,0,0,1,2,0v6A.99973.99973,0,0,1,299,183.06738ZM1,180.333a.99974.99974,0,0,1-1-1v-6a1,1,0,0,1,2,0v6A.99974.99974,0,0,1,1,180.333Zm298-9.26563a.99973.99973,0,0,1-1-1v-6a1,1,0,0,1,2,0v6A.99973.99973,0,0,1,299,171.06738ZM1,168.333a.99974.99974,0,0,1-1-1v-6a1,1,0,0,1,2,0v6A.99974.99974,0,0,1,1,168.333Zm298-9.26563a.99973.99973,0,0,1-1-1v-6a1,1,0,0,1,2,0v6A.99973.99973,0,0,1,299,159.06738ZM1,156.333a.99974.99974,0,0,1-1-1v-6a1,1,0,0,1,2,0v6A.99974.99974,0,0,1,1,156.333Zm298-9.26563a.99973.99973,0,0,1-1-1v-6a1,1,0,0,1,2,0v6A.99973.99973,0,0,1,299,147.06738ZM1,144.333a.99974.99974,0,0,1-1-1v-6a1,1,0,0,1,2,0v6A.99974.99974,0,0,1,1,144.333Zm298-9.26563a.99973.99973,0,0,1-1-1v-6a1,1,0,0,1,2,0v6A.99973.99973,0,0,1,299,135.06738ZM1,132.333a.99974.99974,0,0,1-1-1v-6a1,1,0,0,1,2,0v6A.99974.99974,0,0,1,1,132.333Zm298-9.26563a.99973.99973,0,0,1-1-1v-6a1,1,0,0,1,2,0v6A.99973.99973,0,0,1,299,123.06738ZM1,120.333a.99974.99974,0,0,1-1-1v-6a1,1,0,0,1,2,0v6A.99974.99974,0,0,1,1,120.333Zm298-9.26563a.99973.99973,0,0,1-1-1v-6a1,1,0,0,1,2,0v6A.99973.99973,0,0,1,299,111.06738ZM1,108.333a.99974.99974,0,0,1-1-1v-6a1,1,0,0,1,2,0v6A.99974.99974,0,0,1,1,108.333Zm298-9.26563a.99973.99973,0,0,1-1-1v-6a1,1,0,0,1,2,0v6A.99973.99973,0,0,1,299,99.06738ZM1,96.333a.99974.99974,0,0,1-1-1v-6a1,1,0,0,1,2,0v6A.99974.99974,0,0,1,1,96.333Zm298-9.26563a.99973.99973,0,0,1-1-1v-6a1,1,0,0,1,2,0v6A.99973.99973,0,0,1,299,87.06738ZM1,84.333a.99974.99974,0,0,1-1-1v-6a1,1,0,0,1,2,0v6A.99974.99974,0,0,1,1,84.333Zm298-9.26563a.99973.99973,0,0,1-1-1v-6a1,1,0,0,1,2,0v6A.99973.99973,0,0,1,299,75.06738ZM1,72.333a.99974.99974,0,0,1-1-1v-6a1,1,0,0,1,2,0v6A.99974.99974,0,0,1,1,72.333Zm298-9.26563a.99973.99973,0,0,1-1-1v-6a1,1,0,0,1,2,0v6A.99973.99973,0,0,1,299,63.06738ZM1,60.333a.99974.99974,0,0,1-1-1v-6a1,1,0,0,1,2,0v6A.99974.99974,0,0,1,1,60.333Zm298-9.26563a.99973.99973,0,0,1-1-1v-6a1,1,0,0,1,2,0v6A.99973.99973,0,0,1,299,51.06738ZM1,48.333a.99974.99974,0,0,1-1-1v-6a1,1,0,0,1,2,0v6A.99974.99974,0,0,1,1,48.333Zm298-9.26563a.99973.99973,0,0,1-1-1v-6a1,1,0,0,1,2,0v6A.99973.99973,0,0,1,299,39.06738ZM1,36.333a.99974.99974,0,0,1-1-1v-6a1,1,0,0,1,2,0v6A.99974.99974,0,0,1,1,36.333Zm298-9.26563a.99973.99973,0,0,1-1-1v-6a1,1,0,0,1,2,0v6A.99973.99973,0,0,1,299,27.06738ZM1,24.333a.99974.99974,0,0,1-1-1v-6a1,1,0,0,1,2,0v6A.99974.99974,0,0,1,1,24.333Zm298-9.26563a.99973.99973,0,0,1-1-1v-6a1,1,0,0,1,2,0v6A.99973.99973,0,0,1,299,15.06738ZM1,12.333a.99974.99974,0,0,1-1-1v-6a1,1,0,0,1,2,0v6A.99974.99974,0,0,1,1,12.333ZM297.98779,3.31934a.99791.99791,0,0,1-.74463-.332A2.97209,2.97209,0,0,0,295.0332,2h-2.6665a1,1,0,0,1,0-2h2.6665a4.97474,4.97474,0,0,1,3.69825,1.65137,1,1,0,0,1-.74366,1.668ZM4.36768,2.04492A1.00023,1.00023,0,0,1,4.22021.05566,5.08465,5.08465,0,0,1,4.9668,0h5.40039a1,1,0,0,1,0,2H4.9668a2.95009,2.95009,0,0,0-.44873.03418A1.12333,1.12333,0,0,1,4.36768,2.04492ZM286.3667,2h-6a1,1,0,0,1,0-2h6a1,1,0,0,1,0,2Zm-12,0h-6a1,1,0,0,1,0-2h6a1,1,0,0,1,0,2Zm-12,0h-6a1,1,0,0,1,0-2h6a1,1,0,0,1,0,2Zm-12,0h-6a1,1,0,0,1,0-2h6a1,1,0,0,1,0,2Zm-12,0h-6a1,1,0,0,1,0-2h6a1,1,0,0,1,0,2Zm-12,0h-6a1,1,0,0,1,0-2h6a1,1,0,0,1,0,2Zm-12,0h-6a1,1,0,0,1,0-2h6a1,1,0,0,1,0,2ZM202.36719,2h-6a1,1,0,0,1,0-2h6a1,1,0,0,1,0,2Zm-12,0h-6a1,1,0,0,1,0-2h6a1,1,0,0,1,0,2Zm-12,0h-6a1,1,0,0,1,0-2h6a1,1,0,0,1,0,2Zm-12,0h-6a1,1,0,0,1,0-2h6a1,1,0,0,1,0,2Zm-12,0h-6a1,1,0,0,1,0-2h6a1,1,0,0,1,0,2Zm-12,0h-6a1,1,0,0,1,0-2h6a1,1,0,0,1,0,2Zm-12,0h-6a1,1,0,0,1,0-2h6a1,1,0,0,1,0,2Zm-12,0h-6a1,1,0,0,1,0-2h6a1,1,0,0,1,0,2Zm-12,0h-6a1,1,0,0,1,0-2h6a1,1,0,0,1,0,2Zm-12,0h-6a1,1,0,0,1,0-2h6a1,1,0,0,1,0,2Zm-12,0h-6a1,1,0,0,1,0-2h6a1,1,0,0,1,0,2Zm-12,0h-6a1,1,0,1,1,0-2h6a1,1,0,0,1,0,2Zm-12,0h-6a1,1,0,0,1,0-2h6a1,1,0,0,1,0,2Zm-12,0h-6a1,1,0,0,1,0-2h6a1,1,0,0,1,0,2Zm-12,0h-6a1,1,0,0,1,0-2h6a1,1,0,0,1,0,2Zm-12,0h-6a1,1,0,0,1,0-2h6a1,1,0,0,1,0,2Z"/>
  <path class="cls-2" d="M280.5,160H19.5a1.50008,1.50008,0,0,1-1.5-1.5V37.5a1.5,1.5,0,0,1,3,0V157H280.5a1.5,1.5,0,0,1,0,3Z"/>
  <circle class="cls-2" cx="40" cy="49" r="1"/>
  <circle class="cls-2" cx="62" cy="49" r="1"/>
  <circle class="cls-2" cx="84" cy="49" r="1"/>
  <circle class="cls-2" cx="106" cy="49" r="1"/>
  <circle class="cls-2" cx="128" cy="49" r="1"/>
  <circle class="cls-2" cx="150" cy="49" r="1"/>
  <circle class="cls-2" cx="172" cy="49" r="1"/>
  <circle class="cls-2" cx="194" cy="49" r="1"/>
  <circle class="cls-2" cx="216" cy="49" r="1"/>
  <circle class="cls-2" cx="238" cy="49" r="1"/>
  <circle class="cls-2" cx="260" cy="49" r="1"/>
  <circle class="cls-2" cx="40" cy="71" r="1"/>
  <circle class="cls-2" cx="62" cy="71" r="1"/>
  <circle class="cls-2" cx="84" cy="71" r="1"/>
  <circle class="cls-2" cx="106" cy="71" r="1"/>
  <circle class="cls-2" cx="128" cy="71" r="1"/>
  <circle class="cls-2" cx="150" cy="71" r="1"/>
  <circle class="cls-2" cx="172" cy="71" r="1"/>
  <circle class="cls-2" cx="194" cy="71" r="1"/>
  <circle class="cls-2" cx="216" cy="71" r="1"/>
  <circle class="cls-2" cx="238" cy="71" r="1"/>
  <circle class="cls-2" cx="260" cy="71" r="1"/>
  <circle class="cls-2" cx="40" cy="93" r="1"/>
  <circle class="cls-2" cx="62" cy="93" r="1"/>
  <circle class="cls-2" cx="84" cy="93" r="1"/>
  <circle class="cls-2" cx="106" cy="93" r="1"/>
  <circle class="cls-2" cx="128" cy="93" r="1"/>
  <circle class="cls-2" cx="150" cy="93" r="1"/>
  <circle class="cls-2" cx="172" cy="93" r="1"/>
  <circle class="cls-2" cx="194" cy="93" r="1"/>
  <circle class="cls-2" cx="216" cy="93" r="1"/>
  <circle class="cls-2" cx="238" cy="93" r="1"/>
  <circle class="cls-2" cx="260" cy="93" r="1"/>
  <circle class="cls-2" cx="40" cy="115" r="1"/>
  <circle class="cls-2" cx="62" cy="115" r="1"/>
  <circle class="cls-2" cx="84" cy="115" r="1"/>
  <circle class="cls-2" cx="106" cy="115" r="1"/>
  <circle class="cls-2" cx="128" cy="115" r="1"/>
  <circle class="cls-2" cx="150" cy="115" r="1"/>
  <circle class="cls-2" cx="172" cy="115" r="1"/>
  <circle class="cls-2" cx="194" cy="115" r="1"/>
  <circle class="cls-2" cx="216" cy="115" r="1"/>
  <circle class="cls-2" cx="238" cy="115" r="1"/>
  <circle class="cls-2" cx="260" cy="115" r="1"/>
  <circle class="cls-2" cx="40" cy="137" r="1"/>
  <circle class="cls-2" cx="62" cy="137" r="1"/>
  <circle class="cls-2" cx="84" cy="137" r="1"/>
  <circle class="cls-2" cx="106" cy="137" r="1"/>
  <circle class="cls-2" cx="128" cy="137" r="1"/>
  <circle class="cls-2" cx="150" cy="137" r="1"/>
  <circle class="cls-2" cx="172" cy="137" r="1"/>
  <circle class="cls-2" cx="194" cy="137" r="1"/>
  <circle class="cls-2" cx="216" cy="137" r="1"/>
  <circle class="cls-2" cx="238" cy="137" r="1"/>
  <circle class="cls-2" cx="260" cy="137" r="1"/>
  <path class="cls-2" d="M37,141a4,4,0,1,1,4-4A4.00427,4.00427,0,0,1,37,141Zm0-5a1,1,0,1,0,1,1A1.001,1.001,0,0,0,37,136Z"/>
  <path class="cls-2" d="M49,132a4,4,0,1,1,4-4A4.00427,4.00427,0,0,1,49,132Zm0-5a1,1,0,1,0,1,1A1.001,1.001,0,0,0,49,127Z"/>
  <path class="cls-2" d="M61,142a4,4,0,1,1,4-4A4.00427,4.00427,0,0,1,61,142Zm0-5a1,1,0,1,0,1,1A1.001,1.001,0,0,0,61,137Z"/>
  <path class="cls-2" d="M68,112a4,4,0,1,1,4-4A4.00427,4.00427,0,0,1,68,112Zm0-5a1,1,0,1,0,1,1A1.001,1.001,0,0,0,68,107Z"/>
  <path class="cls-2" d="M75,122a4,4,0,1,1,4-4A4.00427,4.00427,0,0,1,75,122Zm0-5a1,1,0,1,0,1,1A1.001,1.001,0,0,0,75,117Z"/>
  <path class="cls-2" d="M90,106a4,4,0,1,1,4-4A4.00427,4.00427,0,0,1,90,106Zm0-5a1,1,0,1,0,1,1A1.001,1.001,0,0,0,90,101Z"/>
  <path class="cls-2" d="M102,113a4,4,0,1,1,4-4A4.00427,4.00427,0,0,1,102,113Zm0-5a1,1,0,1,0,1,1A1.001,1.001,0,0,0,102,108Z"/>
  <path class="cls-2" d="M99,95a4,4,0,1,1,4-4A4.00427,4.00427,0,0,1,99,95Zm0-5a1,1,0,1,0,1,1A1.001,1.001,0,0,0,99,90Z"/>
  <path class="cls-2" d="M112,88a4,4,0,1,1,4-4A4.00427,4.00427,0,0,1,112,88Zm0-5a1,1,0,1,0,1,1A1.001,1.001,0,0,0,112,83Z"/>
  <path class="cls-2" d="M127,90a4,4,0,1,1,4-4A4.00427,4.00427,0,0,1,127,90Zm0-5a1,1,0,1,0,1,1A1.001,1.001,0,0,0,127,85Z"/>
  <path class="cls-2" d="M136,107a4,4,0,1,1,4-4A4.00427,4.00427,0,0,1,136,107Zm0-5a1,1,0,1,0,1,1A1.001,1.001,0,0,0,136,102Z"/>
  <path class="cls-2" d="M145,95a4,4,0,1,1,4-4A4.00427,4.00427,0,0,1,145,95Zm0-5a1,1,0,1,0,1,1A1.001,1.001,0,0,0,145,90Z"/>
  <path class="cls-2" d="M164,87a4,4,0,1,1,4-4A4.00427,4.00427,0,0,1,164,87Zm0-5a1,1,0,1,0,1,1A1.001,1.001,0,0,0,164,82Z"/>
  <path class="cls-2" d="M177,94a4,4,0,1,1,4-4A4.00427,4.00427,0,0,1,177,94Zm0-5a1,1,0,1,0,1,1A1.001,1.001,0,0,0,177,89Z"/>
  <path class="cls-2" d="M183,80a4,4,0,1,1,4-4A4.00427,4.00427,0,0,1,183,80Zm0-5a1,1,0,1,0,1,1A1.001,1.001,0,0,0,183,75Z"/>
  <path class="cls-2" d="M196,74a4,4,0,1,1,4-4A4.00427,4.00427,0,0,1,196,74Zm0-5a1,1,0,1,0,1,1A1.001,1.001,0,0,0,196,69Z"/>
  <path class="cls-2" d="M213,88a4,4,0,1,1,4-4A4.00427,4.00427,0,0,1,213,88Zm0-5a1,1,0,1,0,1,1A1.001,1.001,0,0,0,213,83Z"/>
  <path class="cls-2" d="M228,93a4,4,0,1,1,4-4A4.00427,4.00427,0,0,1,228,93Zm0-5a1,1,0,1,0,1,1A1.001,1.001,0,0,0,228,88Z"/>
  <path class="cls-2" d="M223,68a4,4,0,1,1,4-4A4.00427,4.00427,0,0,1,223,68Zm0-5a1,1,0,1,0,1,1A1.001,1.001,0,0,0,223,63Z"/>
  <path class="cls-2" d="M245,67a4,4,0,1,1,4-4A4.00427,4.00427,0,0,1,245,67Zm0-5a1,1,0,1,0,1,1A1.001,1.001,0,0,0,245,62Z"/>
</svg>
