<svg id="production" xmlns="http://www.w3.org/2000/svg" width="300" height="200" viewBox="0 0 300 200">
  <defs>
    <style>
      .cls-1 {
        fill: #e1e1e1;
      }

      .cls-2 {
        fill: #cacaca;
      }
    </style>
  </defs>
  <title>S_IlluQuadrantChart_300</title>
  <path class="cls-1" d="M295.0332,200h-6a1,1,0,0,1,0-2h6a2.95345,2.95345,0,0,0,.88282-.13379,1.00045,1.00045,0,1,1,.5957,1.91016A4.974,4.974,0,0,1,295.0332,200Zm-12,0h-6a1,1,0,0,1,0-2h6a1,1,0,0,1,0,2Zm-12,0h-6a1,1,0,0,1,0-2h6a1,1,0,0,1,0,2Zm-12,0h-6a1,1,0,1,1,0-2h6a1,1,0,0,1,0,2Zm-12,0h-6a1,1,0,1,1,0-2h6a1,1,0,0,1,0,2Zm-12,0h-6a1,1,0,1,1,0-2h6a1,1,0,0,1,0,2Zm-12,0h-6a1,1,0,1,1,0-2h6a1,1,0,0,1,0,2Zm-12,0h-6a1,1,0,1,1,0-2h6a1,1,0,0,1,0,2Zm-12,0h-6a1,1,0,1,1,0-2h6a1,1,0,0,1,0,2Zm-12,0h-6a1,1,0,1,1,0-2h6a1,1,0,0,1,0,2Zm-12,0h-6a1,1,0,1,1,0-2h6a1,1,0,0,1,0,2Zm-12,0h-6a1,1,0,1,1,0-2h6a1,1,0,0,1,0,2Zm-12,0h-6a1,1,0,1,1,0-2h6a1,1,0,0,1,0,2Zm-12,0h-6a1,1,0,1,1,0-2h6a1,1,0,0,1,0,2Zm-12,0h-6a1,1,0,1,1,0-2h6a1,1,0,0,1,0,2Zm-12,0h-6a1,1,0,1,1,0-2h6a1,1,0,0,1,0,2Zm-12,0h-6a1,1,0,1,1,0-2h6a1,1,0,0,1,0,2Zm-12,0h-6a1,1,0,1,1,0-2h6a1,1,0,0,1,0,2Zm-12,0h-6a1,1,0,1,1,0-2h6a1,1,0,0,1,0,2Zm-12,0h-6a1,1,0,0,1,0-2h6a1,1,0,0,1,0,2Zm-12,0h-6a1,1,0,1,1,0-2h6a1,1,0,0,1,0,2Zm-12,0h-6a1,1,0,1,1,0-2h6a1,1,0,0,1,0,2Zm-12,0h-6a1,1,0,1,1,0-2h6a1,1,0,0,1,0,2Zm-12,0h-6a1,1,0,1,1,0-2h6a1,1,0,0,1,0,2Zm-12,0H4.9668a4.95515,4.95515,0,0,1-4.15528-2.24609,1,1,0,1,1,1.67188-1.09766A2.96173,2.96173,0,0,0,4.9668,198H7.0332a1,1,0,1,1,0,2ZM299,195.06738a.99942.99942,0,0,1-1-1v-6a1,1,0,0,1,2,0v6A.99942.99942,0,0,1,299,195.06738ZM1,192.333a.99943.99943,0,0,1-1-1v-6a1,1,0,0,1,2,0v6A.99943.99943,0,0,1,1,192.333Zm298-9.26563a.99942.99942,0,0,1-1-1v-6a1,1,0,0,1,2,0v6A.99942.99942,0,0,1,299,183.06738ZM1,180.333a.99943.99943,0,0,1-1-1v-6a1,1,0,0,1,2,0v6A.99943.99943,0,0,1,1,180.333Zm298-9.26563a.99942.99942,0,0,1-1-1v-6a1,1,0,0,1,2,0v6A.99942.99942,0,0,1,299,171.06738ZM1,168.333a.99943.99943,0,0,1-1-1v-6a1,1,0,0,1,2,0v6A.99943.99943,0,0,1,1,168.333Zm298-9.26563a.99942.99942,0,0,1-1-1v-6a1,1,0,0,1,2,0v6A.99942.99942,0,0,1,299,159.06738ZM1,156.333a.99943.99943,0,0,1-1-1v-6a1,1,0,0,1,2,0v6A.99943.99943,0,0,1,1,156.333Zm298-9.26563a.99942.99942,0,0,1-1-1v-6a1,1,0,0,1,2,0v6A.99942.99942,0,0,1,299,147.06738ZM1,144.333a.99943.99943,0,0,1-1-1v-6a1,1,0,0,1,2,0v6A.99943.99943,0,0,1,1,144.333Zm298-9.26563a.99942.99942,0,0,1-1-1v-6a1,1,0,0,1,2,0v6A.99942.99942,0,0,1,299,135.06738ZM1,132.333a.99943.99943,0,0,1-1-1v-6a1,1,0,0,1,2,0v6A.99943.99943,0,0,1,1,132.333Zm298-9.26563a.99942.99942,0,0,1-1-1v-6a1,1,0,0,1,2,0v6A.99942.99942,0,0,1,299,123.06738ZM1,120.333a.99943.99943,0,0,1-1-1v-6a1,1,0,0,1,2,0v6A.99943.99943,0,0,1,1,120.333Zm298-9.26563a.99942.99942,0,0,1-1-1v-6a1,1,0,0,1,2,0v6A.99942.99942,0,0,1,299,111.06738ZM1,108.333a.99943.99943,0,0,1-1-1v-6a1,1,0,0,1,2,0v6A.99943.99943,0,0,1,1,108.333Zm298-9.26563a.99942.99942,0,0,1-1-1v-6a1,1,0,0,1,2,0v6A.99942.99942,0,0,1,299,99.06738ZM1,96.333a.99943.99943,0,0,1-1-1v-6a1,1,0,0,1,2,0v6A.99943.99943,0,0,1,1,96.333Zm298-9.26563a.99942.99942,0,0,1-1-1v-6a1,1,0,0,1,2,0v6A.99942.99942,0,0,1,299,87.06738ZM1,84.333a.99943.99943,0,0,1-1-1v-6a1,1,0,0,1,2,0v6A.99943.99943,0,0,1,1,84.333Zm298-9.26563a.99942.99942,0,0,1-1-1v-6a1,1,0,0,1,2,0v6A.99942.99942,0,0,1,299,75.06738ZM1,72.333a.99943.99943,0,0,1-1-1v-6a1,1,0,0,1,2,0v6A.99943.99943,0,0,1,1,72.333Zm298-9.26563a.99942.99942,0,0,1-1-1v-6a1,1,0,0,1,2,0v6A.99942.99942,0,0,1,299,63.06738ZM1,60.333a.99943.99943,0,0,1-1-1v-6a1,1,0,0,1,2,0v6A.99943.99943,0,0,1,1,60.333Zm298-9.26563a.99942.99942,0,0,1-1-1v-6a1,1,0,0,1,2,0v6A.99942.99942,0,0,1,299,51.06738ZM1,48.333a.99943.99943,0,0,1-1-1v-6a1,1,0,0,1,2,0v6A.99943.99943,0,0,1,1,48.333Zm298-9.26563a.99942.99942,0,0,1-1-1v-6a1,1,0,0,1,2,0v6A.99942.99942,0,0,1,299,39.06738ZM1,36.333a.99943.99943,0,0,1-1-1v-6a1,1,0,0,1,2,0v6A.99943.99943,0,0,1,1,36.333Zm298-9.26563a.99942.99942,0,0,1-1-1v-6a1,1,0,0,1,2,0v6A.99942.99942,0,0,1,299,27.06738ZM1,24.333a.99943.99943,0,0,1-1-1v-6a1,1,0,0,1,2,0v6A.99943.99943,0,0,1,1,24.333Zm298-9.26563a.99942.99942,0,0,1-1-1v-6a1,1,0,0,1,2,0v6A.99942.99942,0,0,1,299,15.06738ZM1,12.333a.99943.99943,0,0,1-1-1v-6a1,1,0,0,1,2,0v6A.99943.99943,0,0,1,1,12.333Zm296.9873-9.0127a.99687.99687,0,0,1-.74414-.332A2.973,2.973,0,0,0,295.0332,2h-2.666a1,1,0,0,1,0-2h2.666a4.97153,4.97153,0,0,1,3.69825,1.65332.99947.99947,0,0,1-.74415,1.667ZM4.36816,2.04492A1.00022,1.00022,0,0,1,4.21973.05566,5.07594,5.07594,0,0,1,4.9668,0h5.40039a1,1,0,0,1,0,2H4.9668a2.93437,2.93437,0,0,0-.44825.03418A1.13481,1.13481,0,0,1,4.36816,2.04492ZM286.36719,2h-6a1,1,0,0,1,0-2h6a1,1,0,0,1,0,2Zm-12,0h-6a1,1,0,0,1,0-2h6a1,1,0,0,1,0,2Zm-12,0h-6a1,1,0,0,1,0-2h6a1,1,0,0,1,0,2Zm-12,0h-6a1,1,0,0,1,0-2h6a1,1,0,0,1,0,2Zm-12,0h-6a1,1,0,0,1,0-2h6a1,1,0,0,1,0,2Zm-12,0h-6a1,1,0,0,1,0-2h6a1,1,0,0,1,0,2Zm-12,0h-6a1,1,0,0,1,0-2h6a1,1,0,0,1,0,2Zm-12,0h-6a1,1,0,0,1,0-2h6a1,1,0,0,1,0,2Zm-12,0h-6a1,1,0,0,1,0-2h6a1,1,0,0,1,0,2Zm-12,0h-6a1,1,0,0,1,0-2h6a1,1,0,0,1,0,2Zm-12,0h-6a1,1,0,0,1,0-2h6a1,1,0,0,1,0,2Zm-12,0h-6a1,1,0,0,1,0-2h6a1,1,0,0,1,0,2Zm-12,0h-6a1,1,0,0,1,0-2h6a1,1,0,0,1,0,2Zm-12,0h-6a1,1,0,0,1,0-2h6a1,1,0,0,1,0,2Zm-12,0h-6a1,1,0,0,1,0-2h6a1,1,0,0,1,0,2Zm-12,0h-6a1,1,0,0,1,0-2h6a1,1,0,0,1,0,2Zm-12,0h-6a1,1,0,0,1,0-2h6a1,1,0,0,1,0,2Zm-12,0h-6a1,1,0,0,1,0-2h6a1,1,0,0,1,0,2Zm-12,0h-6a1,1,0,1,1,0-2h6a1,1,0,0,1,0,2Zm-12,0h-6a1,1,0,0,1,0-2h6a1,1,0,0,1,0,2Zm-12,0h-6a1,1,0,0,1,0-2h6a1,1,0,0,1,0,2Zm-12,0h-6a1,1,0,0,1,0-2h6a1,1,0,0,1,0,2Zm-12,0h-6a1,1,0,0,1,0-2h6a1,1,0,0,1,0,2Z"/>
  <g>
    <circle class="cls-2" cx="84" cy="34" r="1"/>
    <circle class="cls-2" cx="106" cy="34" r="1"/>
    <circle class="cls-2" cx="128" cy="34" r="1"/>
    <circle class="cls-2" cx="172" cy="34" r="1"/>
    <circle class="cls-2" cx="194" cy="34" r="1"/>
    <circle class="cls-2" cx="216" cy="34" r="1"/>
    <circle class="cls-2" cx="84" cy="56" r="1"/>
    <circle class="cls-2" cx="106" cy="56" r="1"/>
    <circle class="cls-2" cx="128" cy="56" r="1"/>
    <circle class="cls-2" cx="172" cy="56" r="1"/>
    <circle class="cls-2" cx="194" cy="56" r="1"/>
    <circle class="cls-2" cx="216" cy="56" r="1"/>
    <circle class="cls-2" cx="84" cy="78" r="1"/>
    <circle class="cls-2" cx="106" cy="78" r="1"/>
    <circle class="cls-2" cx="128" cy="78" r="1"/>
    <circle class="cls-2" cx="172" cy="78" r="1"/>
    <circle class="cls-2" cx="194" cy="78" r="1"/>
    <circle class="cls-2" cx="216" cy="78" r="1"/>
    <circle class="cls-2" cx="84" cy="122" r="1"/>
    <circle class="cls-2" cx="106" cy="122" r="1"/>
    <circle class="cls-2" cx="128" cy="122" r="1"/>
    <circle class="cls-2" cx="172" cy="122" r="1"/>
    <circle class="cls-2" cx="194" cy="122" r="1"/>
    <circle class="cls-2" cx="216" cy="122" r="1"/>
    <circle class="cls-2" cx="84" cy="144" r="1"/>
    <circle class="cls-2" cx="106" cy="144" r="1"/>
    <circle class="cls-2" cx="128" cy="144" r="1"/>
    <circle class="cls-2" cx="172" cy="144" r="1"/>
    <circle class="cls-2" cx="194" cy="144" r="1"/>
    <circle class="cls-2" cx="216" cy="144" r="1"/>
    <circle class="cls-2" cx="84" cy="166" r="1"/>
    <circle class="cls-2" cx="61" cy="34" r="1"/>
    <circle class="cls-2" cx="61" cy="56" r="1"/>
    <circle class="cls-2" cx="61" cy="78" r="1"/>
    <circle class="cls-2" cx="61" cy="100" r="1"/>
    <circle class="cls-2" cx="61" cy="122" r="1"/>
    <circle class="cls-2" cx="61" cy="144" r="1"/>
    <circle class="cls-2" cx="61" cy="166" r="1"/>
    <circle class="cls-2" cx="239" cy="34" r="1"/>
    <circle class="cls-2" cx="239" cy="56" r="1"/>
    <circle class="cls-2" cx="239" cy="78" r="1"/>
    <circle class="cls-2" cx="239" cy="100" r="1"/>
    <circle class="cls-2" cx="239" cy="122" r="1"/>
    <circle class="cls-2" cx="239" cy="144" r="1"/>
    <circle class="cls-2" cx="239" cy="166" r="1"/>
    <circle class="cls-2" cx="106" cy="166" r="1"/>
    <circle class="cls-2" cx="128" cy="166" r="1"/>
    <circle class="cls-2" cx="172" cy="166" r="1"/>
    <circle class="cls-2" cx="194" cy="166" r="1"/>
    <circle class="cls-2" cx="216" cy="166" r="1"/>
  </g>
  <path class="cls-2" d="M148.5,179a1.50039,1.50039,0,0,1-1.5-1.5V21.5a1.5,1.5,0,0,1,3,0v156A1.50039,1.50039,0,0,1,148.5,179Z"/>
  <path class="cls-2" d="M226.5,101H70.5a1.5,1.5,0,0,1,0-3h156a1.5,1.5,0,0,1,0,3Z"/>
  <path class="cls-2" d="M130,88a4,4,0,1,1,4-4A4.004,4.004,0,0,1,130,88Zm0-5a1,1,0,1,0,1,1A1.00067,1.00067,0,0,0,130,83Z"/>
  <path class="cls-2" d="M173,86a4,4,0,1,1,4-4A4.004,4.004,0,0,1,173,86Zm0-5a1,1,0,1,0,1,1A1.00067,1.00067,0,0,0,173,81Z"/>
  <path class="cls-2" d="M172,63a4,4,0,1,1,4-4A4.004,4.004,0,0,1,172,63Zm0-5a1,1,0,1,0,1,1A1.00067,1.00067,0,0,0,172,58Z"/>
  <path class="cls-2" d="M195,54a4,4,0,1,1,4-4A4.004,4.004,0,0,1,195,54Zm0-5a1,1,0,1,0,1,1A1.00067,1.00067,0,0,0,195,49Z"/>
  <path class="cls-2" d="M194,135a4,4,0,1,1,4-4A4.004,4.004,0,0,1,194,135Zm0-5a1,1,0,1,0,1,1A1.00067,1.00067,0,0,0,194,130Z"/>
  <path class="cls-2" d="M174,146a4,4,0,1,1,4-4A4.004,4.004,0,0,1,174,146Zm0-5a1,1,0,1,0,1,1A1.00067,1.00067,0,0,0,174,141Z"/>
  <path class="cls-2" d="M129,132a4,4,0,1,1,4-4A4.004,4.004,0,0,1,129,132Zm0-5a1,1,0,1,0,1,1A1.00067,1.00067,0,0,0,129,127Z"/>
  <path class="cls-2" d="M104,163a4,4,0,1,1,4-4A4.004,4.004,0,0,1,104,163Zm0-5a1,1,0,1,0,1,1A1.00067,1.00067,0,0,0,104,158Z"/>
  <path class="cls-2" d="M80,148a4,4,0,1,1,4-4A4.004,4.004,0,0,1,80,148Zm0-5a1,1,0,1,0,1,1A1.00067,1.00067,0,0,0,80,143Z"/>
</svg>
